<svg version="1" xmlns="http://www.w3.org/2000/svg" width="933.333" height="933.333" viewBox="0 0 700.000000 700.000000"><path d="M181.5 236c-16.5 2.2-32.2 11.9-43.4 26.7-6.4 8.6-15 25.9-19 38.4-6.5 20.5-9.7 45.3-8.1 62.9 1.5 17.3 4.3 25.2 11.7 33.1 9.5 10.1 19.1 13.4 37.3 12.6 17.4-.7 27.9-4.2 40.6-13.3l7.3-5.3 2.1 3.4c8.2 13.3 32.1 17.6 49.4 8.9 17.7-8.9 31-31.3 34.1-57.4 1-8.5 1.1-8.7 5.8-9.4 2.3-.4 7-1.6 10.5-2.7 3.5-1.2 6.5-1.9 6.6-1.8.3.3-10.4 52.4-14.9 73-.5 2.4-1.8 3.1-9.8 5.9-22.4 7.8-30.7 16-30.7 30.4 0 12.1 9.9 22.2 22.9 23.3 6.9.6 18-1.8 23.7-5.2 2.3-1.4 5.8-4.3 7.7-6.5l3.4-4.1 1.3 3.1c1.9 4.5 9.3 10.6 14.5 11.9 14.4 3.6 30.9-1.9 39.5-13.3 7.3-9.6 8.2-13.1 22.5-80.6 7.5-35.5 13.8-65.3 14.1-66.3.5-1.5 1.9-1.7 11.9-1.7 9.4 0 11.4-.3 11.9-1.6 1.6-4.2 1.1-4.4-10.9-4.4-11.5 0-11.5 0-11-2.3.3-1.2 1.6-7.4 2.9-13.7 1.3-6.4 3.3-13.6 4.5-16.1 4-8.6 10.7-12.6 17.7-10.7 4.7 1.2 6.7 4.1 7.2 10.3l.4 5.5h7l-.4-8.8c-.3-7.7-.6-9.2-3.3-13.2-4.6-6.7-11.2-10.4-19.8-10.8-7.4-.5-16.2 1-21.1 3.5-1.7.9-5.3 3.8-8.2 6.5l-5.3 5-1.4-2.9c-4.1-7.6-12.7-12.2-23.3-12.3-16.3 0-28 7.2-34.8 21.5-3.3 7-4 9.6-10.5 40.5l-5.6 26.5-6.5 2.2c-3.6 1.2-8.8 2.2-11.6 2.3h-5.1l-.7-6.9c-.9-10.5-3.4-16.9-8.6-22.2-5.3-5.6-10.1-7.2-20.9-7.1-20.9.3-37.6 12.2-49.1 35.2-7.1 14.1-10.2 26.5-10.6 43l-.3 12.5-6.3 3.3c-8.2 4.2-19.4 6.6-27.2 5.7-20.6-2.4-27.9-17.2-25.5-51.6 3.1-43.5 21.5-86.3 41.4-95.9 5.4-2.6 13-2.6 17.2 0 8.9 5.4 8.9 22-.1 32.7l-2.7 3.2 3 1.6c3.8 1.9 11.3 1.9 15 0 6-3.1 8.8-16.2 5.7-26.9-3.2-10.9-12.1-17.5-26.3-19.6-7.6-1.1-9.3-1.1-17.8 0zm202.3 19.6c1.8 2.1 2.2 3.7 2.2 9.7 0 4-.9 12.4-2 18.7-1.1 6.3-2 11.6-2 11.7 0 .2-6 .3-13.4.3h-13.4l3-14.1c3.9-19.1 8-26.6 15.4-28.9 4.1-1.2 7.5-.3 10.2 2.6zm-3.3 47.6c-.2.7-4.9 22.4-10.5 48.3-14.3 67.1-16.8 78.3-18.6 83.8-1.9 5.8-7.3 11.3-11.9 12.1-5.8 1.1-16.5-2.5-16.5-5.5 0-.6.9-4.1 2-7.7 2.3-7.5 2.8-9.6 17.4-78.2 5.8-27.2 10.8-50.5 11.1-51.8.5-2.1.9-2.2 14-2.2 10.3 0 13.3.3 13 1.2zM274 304c2.6 1.4 4 4.2 4.9 9.9.7 4.5.6 4.9-2 6.4-5.6 3.1-6.1 14.5-.9 17.2l2.8 1.4-1.4 7.3c-4.4 23-15.5 41.4-25.9 43.1-5.4.9-10.5-1.2-12.9-5.2-7.8-13.5 2.7-57.6 17.9-74.7 5.1-5.8 12.5-8.1 17.5-5.4zm25.8 115.7c-4.1 19.1-6.3 23.4-13.3 26.7-4.2 2-8.9 1-12.2-2.7-2.9-3.2-3.3-4.9-2.2-9.8 1.9-8.3 7-13 20.8-19 4.7-2.1 8.6-3.8 8.7-3.8 0-.1-.8 3.8-1.8 8.6z"/><path d="M373.5 257c-5.4 2.2-8.3 8.2-11.6 23.9-2.6 12.9-2.8 12.3 3.3 11.9l5.2-.3 1.1-5.5c1.9-9.4 4.4-15.6 7.5-18.5 2.3-2.2 3-3.8 3-6.5 0-5.5-3-7.3-8.5-5zM356.5 307.2c-.2.7-4.5 20.9-9.5 44.8s-9.4 44.3-9.7 45.4c-.5 1.7-.1 1.8 4.3 1.1 2.7-.3 5.4-1.1 5.9-1.6.6-.6 4.8-19.1 9.5-41.2l8.6-40.2 3.9-.3c4.8-.4 5.1-.7 5.9-5.5l.7-3.7h-9.6c-6.8 0-9.7.4-10 1.2zM339.2 406.3c-4.6.9-4.3.5-6.7 12.7-1 4.7-2.6 11.4-3.7 14.8-1.1 3.5-1.7 7-1.4 7.7.5 1.3 9.2 3.2 10.1 2.3.3-.2 1.6-5.6 3-11.9 1.4-6.3 2.8-12.4 3-13.6.4-1.8 1.5-2.4 4.6-2.9 4.1-.7 4.8-1.5 6.2-7.5.7-2.6.6-2.6-5.2-2.5-3.2 0-7.6.4-9.9.9zM265.3 307.1c-12.1 3.5-26 39-25.1 64.5.3 11.2 1 12.7 6.1 13.9l2.7.7v-8.8c0-9.3 2.3-21.4 6-32.4 4.5-13.2 13.3-27 18-28.5 1.4-.4 2-1.5 2-3.4 0-5.2-3.9-7.6-9.7-6zM290.4 419.5c-12.5 5.5-19.1 16.7-13.1 22.3 3.4 3.2 6.4 2.8 8.1-1.1.7-1.7 3-4.7 4.9-6.6 2.7-2.6 3.9-4.8 4.7-8.8 1.7-8 1.4-8.5-4.6-5.8zM453.5 249.2c1.9 4 2.5 7 2.5 12.3 0 10.2-.5 11.5-4.6 11.5-3.4 0-3.4.1-3.4 4.5v4.5h7.9c6.3 0 8-.3 8.5-1.6 1.2-3.1.6-17.1-1-21.6-1.6-4.7-7.1-12.1-10.4-13.8-1.7-.9-1.7-.5.5 4.2zM225.2 245.6c6.7 14 7.1 25 1.3 35-3.3 5.6-9 7.9-17 6.9-6.5-.8-6.9.1-2 4.4 6.2 5.5 17.6 6.6 23.4 2.4 12.9-9.6 11.4-36.2-2.6-46.9-2-1.5-3.4-2.3-3.1-1.8zM190.9 247.4c-18.5 6.6-36.3 45.3-41 89.1-1.3 12.6-.7 28.8 1.5 35.8 1.8 6 5.1 11 8.7 13.1l2.8 1.6-1.9-5.4c-5.6-15.7-2.5-50.3 7-78.9 9.5-28.3 23.4-46.6 36-47.1 2.2 0 4-.3 4-.6s-.9-2-2-3.8c-3.1-5.1-8.1-6.3-15.1-3.8zM431 256.7c-2.4.9-6.1 4.5-7.7 7.6-1.6 3.1-6.3 22.8-6.3 26.4 0 2.1.5 2.3 5 2.3 4.6 0 5-.2 5.6-2.8 3.6-16 6.1-21.4 10.6-23.4 2.2-1 2.8-1.9 2.8-4.5 0-4.8-4.8-7.5-10-5.6zM468.5 293.1c-13.9 2.1-29.4 13.6-37.8 27.9-8.4 14.6-13.7 33.5-13.8 50-.1 15.7 2.1 22.2 9.5 28.7 6.4 5.6 13.7 7.8 25.6 7.7 17.2-.1 30.1-5.8 44.6-19.6l8.1-7.8 1.8 6.7c1.6 5.7 2.7 7.6 6.9 11.8 7.8 7.8 20.4 11 34.1 8.6 8.6-1.5 15.1-4.8 19.9-10.2 3.7-4 9.3-14.5 8.3-15.5-.2-.2-3.7 1.2-7.8 3.3-5.8 3-8.8 3.8-13.9 4.1-12.6.6-17.5-5-17.5-20.3v-8.9l7.5-1.2c15.5-2.5 25.8-8.1 35.4-19.4 7.8-9.1 11.3-19.9 10-30.3-1.3-9.3-6.8-14.2-17.9-15.8-33.4-4.7-62.2 26.4-66.1 71.4l-.7 7.7-6.4 6c-10.4 9.8-22.5 14.7-33.9 13.7-12.4-1-16.4-6.3-16.4-22 0-7 .4-9.9 1.3-10.1.6-.2 4.8-1 9.2-1.8 12-2.3 20.7-6.9 29.1-15.3 9.1-9.1 12.7-16.2 13.3-26.3.5-9.9-.4-13.5-4.2-17.6-4.8-5.1-16.2-7.3-28.2-5.5zm13.2 8.5c3.6 1 5.6 6.7 5 14.2-1.3 17-16.3 33.2-32.9 35.7l-4.7.7 2.4-8.8c5.4-20.5 13.6-35 22.5-40.3 3.8-2.3 4.4-2.4 7.7-1.5zm91.3 2c1.1 1.1 1.5 3.8 1.5 10.2 0 7.3-.4 9.6-2.6 14.2-5.6 11.9-18.5 22.1-30.1 23.6l-4.7.7 1.9-7.1c8.8-31.7 24.5-50.9 34-41.6z"/><path d="M474.9 306.5c-5.6 3-12.9 15.5-17.9 30.4-3.6 10.8-3.7 11.4-.7 10.6 8.3-2.3 9.4-3.4 14.7-14.2 2.8-5.7 6.6-12.1 8.5-14.2 3.5-3.8 4.5-8.3 2.9-12.5-.8-2-4-2-7.5-.1zM563 306.7c-4.2 2.9-6.8 6.4-11.4 15.3-4.2 8.1-10.2 24.8-9.2 25.7.9.9 10.3-2.8 11.8-4.5.8-.9 2.5-4.3 3.8-7.5 2.3-5.8 8.6-15.6 12.2-19.1 1.6-1.5 1.9-2.6 1.4-5.9-.4-2.2-.9-4.4-1.2-4.9-.9-1.4-4.8-.9-7.4.9zM503.6 303.7c5.5 18.3-6.2 40.6-27.2 51.5-7.2 3.7-16.5 6.8-20.7 6.8-4.1 0-5 2.2-4.4 10.4.6 8.9 2.6 13 6.7 14.5l3.1 1-.7-6.9c-.7-7.9.2-10 4.5-10 8.2-.1 24.1-7.6 32.9-15.6 5.1-4.6 6.1-6.1 7.7-11.6.9-3.5 3.2-9.6 5.1-13.7 3.6-7.7 4.1-12 2.3-18.4-1-3.8-5.8-10-8.9-11.7-1.7-.9-1.7-.7-.4 3.7zM591.7 303.3c1 2.9 1.4 6.8 1.1 12.4-.6 11.2-4.5 19.2-14.3 29-8.3 8.4-19.4 14.3-30.8 16.7-3.8.8-7.2 1.7-7.5 2-.9.9-.3 12.1.7 15 1.3 3.2 4.6 6.6 6.6 6.6 1.2 0 1.5-1.4 1.5-6.5 0-6.2.1-6.5 2.8-7 16.4-3.5 26.1-8.3 35.8-18 9.9-9.8 13.6-17.6 14.2-29.5.3-5.4 0-10.2-.8-12.5-1.3-3.8-6-9.9-9-11.5-1.6-.9-1.6-.7-.3 3.3zM292 300.3c0 .3 1.1 2.9 2.5 5.9 1.3 3 2.8 8.5 3.2 12.4l.8 6.9 4-.3c2.2-.2 4.1-.5 4.3-.6.7-.7-3.7-12.5-6.1-16.2-2.2-3.5-8.7-9.5-8.7-8.1zM437.5 303l-.6 2.9-11.7.3-11.6.3-13.7 64.5c-7.5 35.5-14.3 66.1-15.2 68.2-5.8 13.9-16.1 23.8-28.3 27.4-13.6 3.9-27.7 1.2-34.9-6.7L318 456l-5.2 4c-11.5 8.7-30.2 11-40.7 4.9-1.8-1.1-3.5-1.8-3.7-1.6-1.2 1.1 6.7 8.1 12.3 10.8 5.8 2.9 7.4 3.3 14.7 3.2 9.4-.1 19.2-3 24.6-7.2 5.7-4.4 5.7-4.4 9.6-.5 5.7 5.7 11.4 7.7 21.4 7.7 9.4.1 18-2 23.9-5.7 5.7-3.7 12.7-11.8 16.5-19.3 3.8-7.7 4.3-9.5 20.9-88.3l10.2-48.5 3.9-.3c2.9-.3 4.5-1.1 6.4-3.5 1.4-1.8 4.6-5.1 7-7.5l4.5-4.2h-3.1c-2.6 0-3.1.5-3.7 3zM304.8 338.9c-3.1.9-5.9 1.9-6.2 2.2-.4.3-1.3 4.4-2.1 9-2.1 11.9-4.1 18.1-8.7 27.3-9.7 19.3-23.7 30.9-40.6 33.6-13.2 2.2-30.8-2.9-37-10.6-1.5-1.9-3.1-3.4-3.6-3.4s-2.3 1.1-4 2.4c-5.6 4.2-17 9.6-25.1 11.7-11.8 3.2-29.5 3.2-38.9.1-3.8-1.3-9-3.8-11.5-5.5l-4.6-3.1 3.4 4.2c3.3 4.2 8.7 8.4 14.6 11.5 4.5 2.3 17.5 4.7 25.2 4.7 14.4 0 35-6.6 45.2-14.4l3.4-2.6 4.9 4.6c6 5.6 11.4 7.9 21.7 9.4 32 4.7 58.4-21.1 65.1-63.8.8-4.6 1.6-7.2 2.5-7.2.7 0 1.6-1.7 2-3.8.3-2 .9-4.7 1.2-6 .6-2.5.7-2.5-6.9-.3zM584.7 382c-3.8 2.9-7.5 6.6-8.6 8.8-3.4 6.5-9.9 13-16.4 16.1-11.6 5.7-28.9 5.8-39.9.3-3.2-1.6-5.8-2.5-5.8-2 0 .4 1.7 2.5 3.9 4.7 14.6 14.6 47.5 13.8 60.9-1.4 2.2-2.5 5.1-7 6.6-10 2.3-4.9 6.9-20.5 6.2-21.2-.1-.2-3.3 2-6.9 4.7zM499.4 390.1c-8.1 8.5-22.9 17.2-33.8 19.8-6.3 1.6-21 1.6-26.7.1-2.4-.6-6.3-2.2-8.6-3.5-5.3-2.9-5.4-1.9-.4 3.2 7.8 8.1 21.2 11.8 36.8 10.3 12.8-1.3 26.3-7.6 38.1-17.7l3.4-2.8-3-6.2-2.9-6.2-2.9 3z"/></svg>