<?xml version="1.0" encoding="utf-8"?>
<!-- Generator: Adobe Illustrator 21.0.0, SVG Export Plug-In . SVG Version: 6.00 Build 0)  -->
<svg version="1.1" xmlns="http://www.w3.org/2000/svg" xmlns:xlink="http://www.w3.org/1999/xlink" x="0px" y="0px"
	 viewBox="0 0 600 600" style="enable-background:new 0 0 600 600;" xml:space="preserve">
<style type="text/css">
	.st0{fill:#C0F0CF;}
	.st1{display:none;}
	.st2{display:inline;}
	.st3{fill:#005057;stroke:#005057;stroke-width:3;stroke-miterlimit:10;}
	.st4{fill:#FF9064;stroke:#D9D9B4;stroke-width:3;stroke-miterlimit:10;}
	.st5{fill:#005057;stroke:#005057;stroke-width:4;stroke-miterlimit:10;}
	.st6{fill:#FF9064;stroke:#D9D9B4;stroke-width:4;stroke-miterlimit:10;}
</style>
<g id="Layer_2">
	<rect x="-15.5" y="-8.5" class="st0" width="628" height="624"/>
</g>
<g id="Layer_1_copy" class="st1">
	<g class="st2">
		<g>
			<path class="st3" d="M195.7,314.5c-2.7,6-6.1,11.3-10.4,15.9c-4.3,4.6-9,8.5-14.2,11.7c-5.2,3.2-10.8,5.6-16.8,7.2
				c-6,1.6-12.1,2.4-18.2,2.4c-13.1,0-23.2-3.9-30.4-11.7c-7.2-7.8-10.8-20.2-10.8-37.3c0-6,0.5-12.8,1.5-20.3
				c1-7.5,2.6-15.1,4.9-22.8c2.3-7.7,5.2-15.2,8.8-22.5c3.6-7.3,8-13.9,13.2-19.6c5.2-5.7,11.3-10.3,18.3-13.8
				c7-3.5,15-5.2,23.9-5.2c4.4,0,8.6,0.5,12.6,1.5s7.5,2.6,10.4,4.7c2.9,2.1,5.3,4.9,7,8.4c1.7,3.5,2.6,7.7,2.6,12.6
				c0,5.1-1.1,9.3-3.2,12.8c-2.1,3.5-5.7,5.2-10.8,5.2c-1.6,0-3.4-0.3-5.5-0.9c-2.1-0.6-4-2-5.9-4.3c2.4-1.2,4.5-3.6,6.4-7.3
				c1.9-3.7,2.8-7.3,2.8-10.9c0-3.3-0.9-6.2-2.8-8.7c-1.9-2.5-4.7-3.7-8.6-3.7c-3.9,0-7.6,1.4-11.2,4.1c-3.6,2.7-7,6.4-10.1,11
				c-3.1,4.6-6,10-8.6,16.2c-2.6,6.2-4.8,12.7-6.7,19.6c-1.9,6.9-3.3,13.9-4.3,21.1c-1,7.2-1.5,14.1-1.5,20.8c0,4.8,0.3,9.2,1,13.2
				c0.7,4,1.9,7.5,3.6,10.4c1.7,2.9,4.2,5.2,7.3,6.8c3.1,1.6,7.1,2.4,11.9,2.4c7.6,0,14.9-1.9,21.8-5.7c6.9-3.8,12.7-8.9,17.4-15.3
				L195.7,314.5z"/>
			<path class="st3" d="M242.7,247.5c16.8,0,25.3,10.5,25.6,31.4c0.5,0.1,1.3,0.2,2.2,0.2c2.3,0,4.8-0.3,7.5-1
				c2.7-0.7,5.5-1.6,8.2-2.7c2.7-1.1,5.4-2.4,8-3.9c2.6-1.5,5-2.9,7.1-4.4l1.8,5.4c-3.9,4.1-8.9,7.6-15.1,10.5
				c-6.2,2.9-12.9,4.9-20.1,6.1c-0.8,9.3-2.6,17.7-5.4,25.2c-2.8,7.5-6.3,13.8-10.6,19.1c-4.3,5.3-9.1,9.3-14.6,12.1
				c-5.5,2.8-11.3,4.2-17.4,4.2c-4.7,0-9-0.6-12.9-1.7c-3.9-1.1-7.3-3-10.1-5.5c-2.8-2.5-5-5.8-6.6-9.8s-2.4-8.9-2.4-14.6
				c0-3.9,0.4-8.3,1.2-13.2c0.8-4.9,2.1-10,3.9-15.3c1.8-5.3,4.1-10.4,6.9-15.4c2.8-5,6.2-9.5,10.3-13.5c4.1-4,8.8-7.2,14.1-9.6
				C229.6,248.7,235.8,247.5,242.7,247.5z M227.9,330.9c2.4,0,4.8-1,7.3-3.1c2.5-2.1,4.7-4.9,6.8-8.6c2.1-3.7,3.9-8,5.5-13.1
				c1.6-5.1,2.8-10.5,3.6-16.4c-2.1-0.5-3.6-1.6-4.3-3.1c-0.7-1.5-1.1-3.3-1.1-5.3c0-2.8,0.6-5.1,1.7-6.9c1.1-1.8,2.6-3,4.5-3.7
				c-0.3-4.1-1-7-2.1-8.7c-1.1-1.7-3-2.5-5.5-2.5c-3.6,0-7,2-10.2,5.9c-3.2,3.9-6,8.7-8.4,14.4c-2.4,5.7-4.3,11.7-5.8,18
				c-1.5,6.3-2.2,12-2.2,16.9c0,3.3,0.2,6,0.5,8.1c0.3,2.1,0.9,3.7,1.7,4.9c0.8,1.2,1.9,2,3.2,2.5
				C224.4,330.7,226,330.9,227.9,330.9z"/>
			<path class="st3" d="M260.5,398.5c-3.1,0-6-0.5-8.8-1.5c-2.8-1-5.3-2.5-7.5-4.4c-2.2-1.9-4-4.2-5.3-6.9c-1.3-2.7-2-5.6-2-8.8
				c0-4.5,0.9-8.4,2.7-11.6c1.8-3.2,4.3-5.9,7.4-8.1c3.1-2.2,6.8-4.1,11-5.7c4.2-1.6,8.7-3.1,13.5-4.6l24-114.2
				c1.5-7.2,3.6-13,6.3-17.4c2.7-4.4,5.8-7.8,9.2-10.3c3.4-2.5,6.9-4.1,10.5-5c3.6-0.9,7.1-1.3,10.4-1.3c4.5,0,8.8,1.1,12.7,3.4
				c3.9,2.3,6.8,5.3,8.7,9.2c4-5.1,8.5-8.4,13.4-10.1c4.9-1.7,9.6-2.5,14-2.5c3.1,0,6,0.5,8.8,1.5c2.8,1,5.3,2.5,7.5,4.4
				c2.2,1.9,4,4.2,5.3,6.9c1.3,2.7,2,5.6,2,8.8c0,3.1-0.2,5.8-0.6,8.2h-9.4c0.1-1.1,0.2-2,0.3-2.8c0.1-0.8,0.1-1.7,0.1-2.6
				c0-2.3-0.8-4-2.3-5.1c-1.5-1.1-3.3-1.7-5.3-1.7c-1.1,0-2.2,0.2-3.5,0.6c-1.3,0.4-2.5,1.2-3.8,2.3c-1.3,1.1-2.4,2.7-3.5,4.8
				c-1.1,2.1-2,4.8-2.8,8.1l-3.6,16.4h20l-1.8,8h-19.8l-22.6,108c-1.5,7.2-3.6,13-6.3,17.4c-2.7,4.4-5.8,7.8-9.2,10.3
				c-3.4,2.5-6.9,4.1-10.5,5c-3.6,0.9-7.1,1.3-10.4,1.3c-5.7,0-10.4-1.1-13.9-3.4c-3.5-2.3-6.1-5.3-7.7-9.2
				c-3.9,5.1-8.3,8.4-13.2,10.1C269.6,397.7,264.9,398.5,260.5,398.5z M249.1,374.1c0,1.5,0.8,2.9,2.3,4.4c1.5,1.5,3.4,2.2,5.7,2.2
				c2.1,0,4.3-1.1,6.5-3.3s4-6.3,5.3-12.3l2.4-11.6c-3.2,1.1-6.1,2.2-8.8,3.5c-2.7,1.3-5,2.7-7,4.3c-2,1.6-3.6,3.5-4.7,5.6
				C249.7,369,249.1,371.4,249.1,374.1z M293.1,376.7c0.9,1.6,2.4,2.7,4.5,3.2c2.1,0.5,4.4,0.8,7.1,0.8c2.1,0,4.3-1.1,6.5-3.3
				c2.2-2.2,4-6.3,5.3-12.3l4.8-22.8l-20.6,3.8l-3.8,18.4c-0.5,2.3-1.1,4.4-1.8,6.5C294.4,373.1,293.8,375,293.1,376.7z
				 M301.7,341.1l20.6-3.6l17-81h-19.8L301.7,341.1z M345.9,223.1c0-2.3-0.8-4-2.3-5.1c-1.5-1.1-3.3-1.7-5.3-1.7
				c-1.1,0-2.2,0.2-3.5,0.6c-1.3,0.4-2.5,1.2-3.8,2.3c-1.3,1.1-2.4,2.7-3.5,4.8c-1.1,2.1-2,4.8-2.8,8.1l-3.6,16.4h19.8l4.6-21
				c0.3-0.8,0.4-1.5,0.4-2.2C345.9,224.6,345.9,223.9,345.9,223.1z"/>
			<path class="st3" d="M408.1,316.1c0,6.8,1.2,11.3,3.6,13.5c2.4,2.2,6,3.3,10.8,3.3c4,0,7.6-0.5,10.8-1.6c3.2-1.1,6.2-2.5,9-4.3
				s5.5-3.9,8-6.4c2.5-2.5,5.1-5.1,7.6-7.9h6.8c-2.8,4.7-6,9.2-9.6,13.6c-3.6,4.4-7.7,8.3-12.2,11.8c-4.5,3.5-9.5,6.3-15,8.4
				c-5.5,2.1-11.5,3.2-18.2,3.2c-9.5,0-17.1-2.5-22.8-7.4c-5.7-4.9-8.6-13.1-8.6-24.4c0-3.9,0.4-8.3,1.2-13.2c0.8-4.9,2-10,3.7-15.2
				c1.7-5.2,3.9-10.3,6.7-15.3c2.8-5,6.2-9.5,10.2-13.5s8.7-7.2,14-9.6c5.3-2.4,11.4-3.6,18.2-3.6c4.4,0,8,0.5,10.9,1.6
				c2.9,1.1,5.1,2.5,6.8,4.3c1.7,1.8,2.8,3.8,3.4,6.1c0.6,2.3,0.9,4.7,0.9,7.2c0,5.6-1.3,10.9-3.8,15.8c-2.5,4.9-5.9,9.2-10.2,12.9
				c-4.2,3.7-9.1,6.6-14.6,8.8c-5.5,2.2-11.2,3.5-17.2,3.9c-0.1,1.5-0.2,2.9-0.3,4.2C408.1,313.6,408.1,314.9,408.1,316.1z
				 M438.9,266.5c0-2.5-0.4-4.5-1.1-6c-0.7-1.5-2-2.2-3.9-2.2c-2.5,0-5,1.2-7.4,3.6c-2.4,2.4-4.7,5.5-6.8,9.3
				c-2.1,3.8-4,8.1-5.7,12.8c-1.7,4.8-3,9.6-4.1,14.5c3.9-0.3,7.6-1.3,11.1-3.2c3.5-1.9,6.6-4.2,9.3-7.2c2.7-2.9,4.8-6.3,6.3-10.1
				C438.1,274.3,438.9,270.4,438.9,266.5z"/>
			<path class="st3" d="M485.1,308.1c-0.1,1.1-0.2,2.1-0.3,3.1c-0.1,1-0.1,2-0.1,3.1c0,2,0.2,4,0.5,5.9c0.3,1.9,1,3.7,1.9,5.3
				c0.9,1.6,2.2,2.9,3.8,3.8c1.6,0.9,3.6,1.4,6.2,1.4c3.8,0,7.9-1.1,12.2-3.2c4.3-2.1,8.1-4.6,11.2-7.4c-1.1,5.7-2.7,10.5-4.9,14.3
				s-4.8,6.8-7.9,9.1c-3.1,2.3-6.5,3.9-10.2,4.8c-3.7,0.9-7.6,1.4-11.6,1.4c-9.3,0-16.8-2.5-22.5-7.4c-5.7-4.9-8.5-13.1-8.5-24.4
				c0-3.9,0.4-8.3,1.2-13.2c0.8-4.9,2-10,3.7-15.2c1.7-5.2,3.9-10.3,6.7-15.3s6.2-9.5,10.2-13.5s8.7-7.2,14-9.6
				c5.3-2.4,11.4-3.6,18.2-3.6c4.4,0,8,0.5,10.9,1.6c2.9,1.1,5.1,2.5,6.8,4.3c1.7,1.8,2.8,3.8,3.4,6.1c0.6,2.3,0.9,4.7,0.9,7.2
				c0,5.7-1.3,11-3.8,15.9c-2.5,4.9-5.9,9.1-10.2,12.8c-4.2,3.7-9.1,6.6-14.6,8.8C496.8,306.4,491.1,307.7,485.1,308.1z
				 M515.5,266.5c0-2.5-0.4-4.5-1.1-6c-0.7-1.5-2-2.2-3.9-2.2c-2.5,0-5,1.2-7.4,3.7c-2.4,2.5-4.7,5.6-6.8,9.5
				c-2.1,3.8-4.1,8.2-5.8,12.9c-1.7,4.8-3.1,9.5-4.2,14.1c3.9-0.1,7.6-1.1,11.1-3c3.5-1.9,6.6-4.2,9.3-7.2c2.7-2.9,4.8-6.3,6.4-10.1
				C514.7,274.5,515.5,270.6,515.5,266.5z"/>
		</g>
		<g>
			<g>
				<path class="st4" d="M188.7,307.5c-2.7,6-6.1,11.3-10.4,15.9c-4.3,4.6-9,8.5-14.2,11.7c-5.2,3.2-10.8,5.6-16.8,7.2
					c-6,1.6-12.1,2.4-18.2,2.4c-13.1,0-23.2-3.9-30.4-11.7c-7.2-7.8-10.8-20.2-10.8-37.3c0-6,0.5-12.8,1.5-20.3
					c1-7.5,2.6-15.1,4.9-22.8c2.3-7.7,5.2-15.2,8.8-22.5c3.6-7.3,8-13.9,13.2-19.6c5.2-5.7,11.3-10.3,18.3-13.8
					c7-3.5,15-5.2,23.9-5.2c4.4,0,8.6,0.5,12.6,1.5s7.5,2.6,10.4,4.7c2.9,2.1,5.3,4.9,7,8.4c1.7,3.5,2.6,7.7,2.6,12.6
					c0,5.1-1.1,9.3-3.2,12.8c-2.1,3.5-5.7,5.2-10.8,5.2c-1.6,0-3.4-0.3-5.5-0.9c-2.1-0.6-4-2-5.9-4.3c2.4-1.2,4.5-3.6,6.4-7.3
					c1.9-3.7,2.8-7.3,2.8-10.9c0-3.3-0.9-6.2-2.8-8.7c-1.9-2.5-4.7-3.7-8.6-3.7c-3.9,0-7.6,1.4-11.2,4.1c-3.6,2.7-7,6.4-10.1,11
					c-3.1,4.6-6,10-8.6,16.2c-2.6,6.2-4.8,12.7-6.7,19.6c-1.9,6.9-3.3,13.9-4.3,21.1c-1,7.2-1.5,14.1-1.5,20.8c0,4.8,0.3,9.2,1,13.2
					c0.7,4,1.9,7.5,3.6,10.4c1.7,2.9,4.2,5.2,7.3,6.8c3.1,1.6,7.1,2.4,11.9,2.4c7.6,0,14.9-1.9,21.8-5.7c6.9-3.8,12.7-8.9,17.4-15.3
					L188.7,307.5z"/>
				<path class="st4" d="M235.7,240.5c16.8,0,25.3,10.5,25.6,31.4c0.5,0.1,1.3,0.2,2.2,0.2c2.3,0,4.8-0.3,7.5-1
					c2.7-0.7,5.5-1.6,8.2-2.7c2.7-1.1,5.4-2.4,8-3.9c2.6-1.5,5-2.9,7.1-4.4l1.8,5.4c-3.9,4.1-8.9,7.6-15.1,10.5
					c-6.2,2.9-12.9,4.9-20.1,6.1c-0.8,9.3-2.6,17.7-5.4,25.2c-2.8,7.5-6.3,13.8-10.6,19.1c-4.3,5.3-9.1,9.3-14.6,12.1
					c-5.5,2.8-11.3,4.2-17.4,4.2c-4.7,0-9-0.6-12.9-1.7c-3.9-1.1-7.3-3-10.1-5.5c-2.8-2.5-5-5.8-6.6-9.8s-2.4-8.9-2.4-14.6
					c0-3.9,0.4-8.3,1.2-13.2c0.8-4.9,2.1-10,3.9-15.3c1.8-5.3,4.1-10.4,6.9-15.4c2.8-5,6.2-9.5,10.3-13.5c4.1-4,8.8-7.2,14.1-9.6
					C222.6,241.7,228.8,240.5,235.7,240.5z M220.9,323.9c2.4,0,4.8-1,7.3-3.1c2.5-2.1,4.7-4.9,6.8-8.6c2.1-3.7,3.9-8,5.5-13.1
					c1.6-5.1,2.8-10.5,3.6-16.4c-2.1-0.5-3.6-1.6-4.3-3.1c-0.7-1.5-1.1-3.3-1.1-5.3c0-2.8,0.6-5.1,1.7-6.9c1.1-1.8,2.6-3,4.5-3.7
					c-0.3-4.1-1-7-2.1-8.7c-1.1-1.7-3-2.5-5.5-2.5c-3.6,0-7,2-10.2,5.9c-3.2,3.9-6,8.7-8.4,14.4c-2.4,5.7-4.3,11.7-5.8,18
					c-1.5,6.3-2.2,12-2.2,16.9c0,3.3,0.2,6,0.5,8.1c0.3,2.1,0.9,3.7,1.7,4.9c0.8,1.2,1.9,2,3.2,2.5
					C217.4,323.7,219,323.9,220.9,323.9z"/>
				<path class="st4" d="M253.5,391.5c-3.1,0-6-0.5-8.8-1.5c-2.8-1-5.3-2.5-7.5-4.4c-2.2-1.9-4-4.2-5.3-6.9c-1.3-2.7-2-5.6-2-8.8
					c0-4.5,0.9-8.4,2.7-11.6c1.8-3.2,4.3-5.9,7.4-8.1c3.1-2.2,6.8-4.1,11-5.7c4.2-1.6,8.7-3.1,13.5-4.6l24-114.2
					c1.5-7.2,3.6-13,6.3-17.4c2.7-4.4,5.8-7.8,9.2-10.3c3.4-2.5,6.9-4.1,10.5-5c3.6-0.9,7.1-1.3,10.4-1.3c4.5,0,8.8,1.1,12.7,3.4
					c3.9,2.3,6.8,5.3,8.7,9.2c4-5.1,8.5-8.4,13.4-10.1c4.9-1.7,9.6-2.5,14-2.5c3.1,0,6,0.5,8.8,1.5c2.8,1,5.3,2.5,7.5,4.4
					c2.2,1.9,4,4.2,5.3,6.9c1.3,2.7,2,5.6,2,8.8c0,3.1-0.2,5.8-0.6,8.2h-9.4c0.1-1.1,0.2-2,0.3-2.8c0.1-0.8,0.1-1.7,0.1-2.6
					c0-2.3-0.8-4-2.3-5.1c-1.5-1.1-3.3-1.7-5.3-1.7c-1.1,0-2.2,0.2-3.5,0.6c-1.3,0.4-2.5,1.2-3.8,2.3c-1.3,1.1-2.4,2.7-3.5,4.8
					c-1.1,2.1-2,4.8-2.8,8.1l-3.6,16.4h20l-1.8,8h-19.8l-22.6,108c-1.5,7.2-3.6,13-6.3,17.4c-2.7,4.4-5.8,7.8-9.2,10.3
					c-3.4,2.5-6.9,4.1-10.5,5c-3.6,0.9-7.1,1.3-10.4,1.3c-5.7,0-10.4-1.1-13.9-3.4c-3.5-2.3-6.1-5.3-7.7-9.2
					c-3.9,5.1-8.3,8.4-13.2,10.1C262.6,390.7,257.9,391.5,253.5,391.5z M242.1,367.1c0,1.5,0.8,2.9,2.3,4.4c1.5,1.5,3.4,2.2,5.7,2.2
					c2.1,0,4.3-1.1,6.5-3.3s4-6.3,5.3-12.3l2.4-11.6c-3.2,1.1-6.1,2.2-8.8,3.5c-2.7,1.3-5,2.7-7,4.3c-2,1.6-3.6,3.5-4.7,5.6
					C242.7,362,242.1,364.4,242.1,367.1z M286.1,369.7c0.9,1.6,2.4,2.7,4.5,3.2c2.1,0.5,4.4,0.8,7.1,0.8c2.1,0,4.3-1.1,6.5-3.3
					c2.2-2.2,4-6.3,5.3-12.3l4.8-22.8l-20.6,3.8l-3.8,18.4c-0.5,2.3-1.1,4.4-1.8,6.5C287.4,366.1,286.8,368,286.1,369.7z
					 M294.7,334.1l20.6-3.6l17-81h-19.8L294.7,334.1z M338.9,216.1c0-2.3-0.8-4-2.3-5.1c-1.5-1.1-3.3-1.7-5.3-1.7
					c-1.1,0-2.2,0.2-3.5,0.6c-1.3,0.4-2.5,1.2-3.8,2.3c-1.3,1.1-2.4,2.7-3.5,4.8c-1.1,2.1-2,4.8-2.8,8.1l-3.6,16.4h19.8l4.6-21
					c0.3-0.8,0.4-1.5,0.4-2.2C338.9,217.6,338.9,216.9,338.9,216.1z"/>
				<path class="st4" d="M401.1,309.1c0,6.8,1.2,11.3,3.6,13.5c2.4,2.2,6,3.3,10.8,3.3c4,0,7.6-0.5,10.8-1.6c3.2-1.1,6.2-2.5,9-4.3
					s5.5-3.9,8-6.4c2.5-2.5,5.1-5.1,7.6-7.9h6.8c-2.8,4.7-6,9.2-9.6,13.6c-3.6,4.4-7.7,8.3-12.2,11.8c-4.5,3.5-9.5,6.3-15,8.4
					c-5.5,2.1-11.5,3.2-18.2,3.2c-9.5,0-17.1-2.5-22.8-7.4c-5.7-4.9-8.6-13.1-8.6-24.4c0-3.9,0.4-8.3,1.2-13.2
					c0.8-4.9,2-10,3.7-15.2c1.7-5.2,3.9-10.3,6.7-15.3c2.8-5,6.2-9.5,10.2-13.5s8.7-7.2,14-9.6c5.3-2.4,11.4-3.6,18.2-3.6
					c4.4,0,8,0.5,10.9,1.6c2.9,1.1,5.1,2.5,6.8,4.3c1.7,1.8,2.8,3.8,3.4,6.1c0.6,2.3,0.9,4.7,0.9,7.2c0,5.6-1.3,10.9-3.8,15.8
					c-2.5,4.9-5.9,9.2-10.2,12.9c-4.2,3.7-9.1,6.6-14.6,8.8c-5.5,2.2-11.2,3.5-17.2,3.9c-0.1,1.5-0.2,2.9-0.3,4.2
					C401.1,306.6,401.1,307.9,401.1,309.1z M431.9,259.5c0-2.5-0.4-4.5-1.1-6c-0.7-1.5-2-2.2-3.9-2.2c-2.5,0-5,1.2-7.4,3.6
					c-2.4,2.4-4.7,5.5-6.8,9.3c-2.1,3.8-4,8.1-5.7,12.8c-1.7,4.8-3,9.6-4.1,14.5c3.9-0.3,7.6-1.3,11.1-3.2c3.5-1.9,6.6-4.2,9.3-7.2
					c2.7-2.9,4.8-6.3,6.3-10.1C431.1,267.3,431.9,263.4,431.9,259.5z"/>
				<path class="st4" d="M478.1,301.1c-0.1,1.1-0.2,2.1-0.3,3.1c-0.1,1-0.1,2-0.1,3.1c0,2,0.2,4,0.5,5.9c0.3,1.9,1,3.7,1.9,5.3
					c0.9,1.6,2.2,2.9,3.8,3.8c1.6,0.9,3.6,1.4,6.2,1.4c3.8,0,7.9-1.1,12.2-3.2c4.3-2.1,8.1-4.6,11.2-7.4c-1.1,5.7-2.7,10.5-4.9,14.3
					s-4.8,6.8-7.9,9.1c-3.1,2.3-6.5,3.9-10.2,4.8c-3.7,0.9-7.6,1.4-11.6,1.4c-9.3,0-16.8-2.5-22.5-7.4c-5.7-4.9-8.5-13.1-8.5-24.4
					c0-3.9,0.4-8.3,1.2-13.2c0.8-4.9,2-10,3.7-15.2c1.7-5.2,3.9-10.3,6.7-15.3s6.2-9.5,10.2-13.5s8.7-7.2,14-9.6
					c5.3-2.4,11.4-3.6,18.2-3.6c4.4,0,8,0.5,10.9,1.6c2.9,1.1,5.1,2.5,6.8,4.3c1.7,1.8,2.8,3.8,3.4,6.1c0.6,2.3,0.9,4.7,0.9,7.2
					c0,5.7-1.3,11-3.8,15.9c-2.5,4.9-5.9,9.1-10.2,12.8c-4.2,3.7-9.1,6.6-14.6,8.8C489.8,299.4,484.1,300.7,478.1,301.1z
					 M508.5,259.5c0-2.5-0.4-4.5-1.1-6c-0.7-1.5-2-2.2-3.9-2.2c-2.5,0-5,1.2-7.4,3.7c-2.4,2.5-4.7,5.6-6.8,9.5
					c-2.1,3.8-4.1,8.2-5.8,12.9c-1.7,4.8-3.1,9.5-4.2,14.1c3.9-0.1,7.6-1.1,11.1-3c3.5-1.9,6.6-4.2,9.3-7.2
					c2.7-2.9,4.8-6.3,6.4-10.1C507.7,267.5,508.5,263.6,508.5,259.5z"/>
			</g>
		</g>
	</g>
</g>
<g id="Layer_1">
	<g>
		<g>
			<path class="st5" d="M382,259.5h-20l3.6-17.6c0.8-3.3,1.7-6.7,2.8-8.7c1.1-2.1,2.2-4,3.5-5.1c1.3-1.1,2.5-2.1,3.8-2.5
				c1.3-0.4,2.4-0.7,3.5-0.7c2,0,3.8,0.5,5.3,1.7c1.5,1.1,2.3,2.8,2.3,5.1c0,0.9,0,3-0.1,3.8c-0.1,0.8-0.2,2-0.3,4h9.4
				c0.4-3,0.6-6.4,0.6-9.4c0-3.2-0.7-6.8-2-9.4c-1.3-2.7-3.1-5.3-5.3-7.2c-2.2-1.9-4.7-3.6-7.5-4.6c-2.8-1-5.7-1.6-8.8-1.6
				c-4.4,0-9.1,0.8-14,2.5c-4.9,1.7-9.4,5-13.4,10.1c-1.9-3.9-4.8-6.9-8.7-9.2c-3.9-2.3-8.2-3.4-12.7-3.4c-3.3,0-6.8,0.4-10.4,1.3
				c-3.6,0.9-7.1,2.5-10.5,5c-3.4,2.5-6.5,5.9-9.2,10.3c-2.7,4.4-4.8,10.2-6.3,17.4l-9,43c-2.5,1-5,1.8-7.5,2.4
				c-2.7,0.7-5.2,1-7.5,1c-0.9,0-1.7-0.1-2.2-0.2c-0.3-20.9-8.8-31.4-25.6-31.4c-6.9,0-13.1,1.2-18.4,3.6c-5.3,2.4-10,5.6-14.1,9.6
				c-4.1,4-7.5,8.5-10.3,13.5c-2.8,5-5.1,10.1-6.9,15.4c-1.8,5.3-3.1,10.4-3.9,15.3c-0.8,4.9-1.2,9.3-1.2,13.2c0,2.9,0.2,5.6,0.6,8
				c-0.9,0.6-1.9,1.1-2.8,1.7c-6.9,3.8-14.2,5.7-21.8,5.7c-4.8,0-8.8-0.8-11.9-2.4c-3.1-1.6-5.6-3.9-7.3-6.8
				c-1.7-2.9-2.9-6.4-3.6-10.4c-0.7-4-1-8.4-1-13.2c0-6.7,0.5-13.6,1.5-20.8c1-7.2,2.4-14.2,4.3-21.1c1.9-6.9,4.1-13.4,6.7-19.6
				c2.6-6.2,5.5-11.6,8.6-16.2c3.1-4.6,6.5-8.3,10.1-11c3.6-2.7,7.3-4.1,11.2-4.1c3.9,0,6.7,1.2,8.6,3.7c1.9,2.5,2.8,5.4,2.8,8.7
				c0,3.6-0.9,7.2-2.8,10.9c-1.9,3.7-4,6.1-6.4,7.3c1.9,2.3,3.8,3.7,5.9,4.3c2.1,0.6,3.9,0.9,5.5,0.9c5.1,0,8.7-1.7,10.8-5.2
				c2.1-3.5,3.2-7.7,3.2-12.8c0-4.9-0.9-9.1-2.6-12.6c-1.7-3.5-4.1-6.3-7-8.4c-2.9-2.1-6.4-3.7-10.4-4.7s-8.2-1.5-12.6-1.5
				c-8.9,0-16.9,1.7-23.9,5.2c-7,3.5-13.1,8.1-18.3,13.8c-5.2,5.7-9.6,12.3-13.2,19.6c-3.6,7.3-6.5,14.8-8.8,22.5
				c-2.3,7.7-3.9,15.3-4.9,22.8c-1,7.5-1.5,14.3-1.5,20.3c0,17.1,3.6,29.5,10.8,37.3c7.2,7.8,17.3,11.7,30.4,11.7
				c6.1,0,12.2-0.8,18.2-2.4c6-1.6,11.6-4,16.8-7.2c3-1.9,5.9-4,8.6-6.3c1.4,2.6,3.1,4.9,5.2,6.7c2.8,2.5,6.2,4.4,10.1,5.5
				c3.9,1.1,8.2,1.7,12.9,1.7c6.1,0,11.9-1.4,17.4-4.2c5.5-2.8,10.3-6.8,14.6-12.1c4.3-5.3,7.8-11.6,10.6-19.1
				c2.8-7.5,4.6-15.9,5.4-25.2c5.5-0.9,10.7-2.3,15.6-4.2l-13,62c-4.8,1.5-9.3,3-13.5,4.6c-4.2,1.6-7.9,3.5-11,5.7
				c-3.1,2.2-5.6,4.9-7.4,8.1c-1.8,3.2-2.7,7.1-2.7,11.6c0,3.2,0.7,6.1,2,8.8c1.3,2.7,3.1,5,5.3,6.9c2.2,1.9,4.7,3.4,7.5,4.4
				c2.8,1,5.7,1.5,8.8,1.5c4.4,0,9.1-0.8,14-2.5c4.9-1.7,9.3-5,13.2-10.1c1.6,3.9,4.2,6.9,7.7,9.2c3.5,2.3,8.2,3.4,13.9,3.4
				c3.3,0,6.8-0.4,10.4-1.3c3.6-0.9,7.1-2.5,10.5-5c3.4-2.5,6.5-5.9,9.2-10.3c2.7-4.4,4.8-9,6.3-16.2l22.6-106.8h19.8L382,259.5z
				 M240.5,282.9c-1.1,1.8-1.7,4.1-1.7,6.9c0,2,0.4,3.8,1.1,5.3c0.7,1.5,2.2,2.6,4.3,3.1c-0.8,5.9-2,11.3-3.6,16.4
				c-1.6,5.1-3.4,9.4-5.5,13.1c-2.1,3.7-4.3,6.5-6.8,8.6c-2.5,2.1-4.9,3.1-7.3,3.1c-1.9,0-3.5-0.2-4.8-0.7c-1.3-0.5-2.4-1.3-3.2-2.5
				c-0.8-1.2-1.4-2.8-1.7-4.9c-0.3-2.1-0.5-4.8-0.5-8.1c0-4.9,0.7-10.6,2.2-16.9c1.5-6.3,3.4-12.3,5.8-18c2.4-5.7,5.2-10.5,8.4-14.4
				c3.2-3.9,6.6-5.9,10.2-5.9c2.5,0,4.4,0.8,5.5,2.5c1.1,1.7,1.8,4.6,2.1,8.7C243.1,279.9,241.6,281.1,240.5,282.9z M261,373.6
				c-1.3,6-3.1,10.1-5.3,12.3s-4.4,3.3-6.5,3.3c-2.3,0-4.2-0.7-5.7-2.2c-1.5-1.5-2.3-2.9-2.3-4.4c0-2.7,0.6-5.1,1.7-7.2
				c1.1-2.1,2.7-4,4.7-5.6c2-1.6,4.3-3,7-4.3c2.7-1.3,5.6-2.4,8.8-3.5L261,373.6z M308.6,373.6c-1.3,6-3.1,10.1-5.3,12.3
				c-2.2,2.2-4.4,3.3-6.5,3.3c-2.7,0-5-0.3-7.1-0.8c-2.1-0.5-3.6-1.6-4.5-3.2c0.7-1.7,1.3-3.6,2-5.7c0.7-2.1,1.3-4.2,1.8-6.5
				l3.8-18.4l20.6-3.8L308.6,373.6z M314.4,347.2l-20.6,4.2l17.8-84h19.8L314.4,347.2z M336.1,233.8c0,0.7,0.8,2.6,0.6,3.4
				l-3.6,22.2h-19.8l3.6-17.6c0.8-3.3,1.7-6.7,2.8-8.7c1.1-2.1,2.2-4,3.5-5.1c1.3-1.1,2.5-2.1,3.8-2.5c1.3-0.4,2.4-0.7,3.5-0.7
				c2,0,2.8,0.5,4.3,1.7c1.5,1.1,1.3,2.8,1.3,5.1C336.1,232.4,336.1,233.1,336.1,233.8z"/>
			<path class="st5" d="M468.2,316.6c6-0.4,11.7-1.7,17.2-3.9c5.5-2.2,10.4-5.1,14.6-8.8c4.2-3.7,7.6-7.9,10.2-12.8
				c2.5-4.9,3.8-10.2,3.8-15.9c0-2.5-0.3-4.9-0.9-7.2c-0.6-2.3-1.7-4.3-3.4-6.1c-1.7-1.8-3.9-3.2-6.8-4.3c-2.9-1.1-6.5-1.6-10.9-1.6
				c-6.8,0-12.9,1.2-18.2,3.6c-5.3,2.4-10,5.6-14,9.6s-7.4,8.5-10.2,13.5s-5,10.1-6.7,15.3c-1.7,5.2-2.9,10.3-3.7,15.2
				c-0.7,4.5-1.1,8.6-1.2,12.3c-1.2,1.3-2.4,2.5-3.6,3.6c-2.5,2.5-5.2,4.6-8,6.4s-5.8,3.2-9,4.3c-3.2,1.1-6.8,1.6-10.8,1.6
				c-4.8,0-8.4-1.1-10.8-3.3c-2.4-2.2-3.6-6.7-3.6-13.5c0-1.2,0-2.5,0.1-3.8c0.1-1.3,0.2-2.7,0.3-4.2c6-0.4,11.7-1.7,17.2-3.9
				c5.5-2.2,10.4-5.1,14.6-8.8c4.2-3.7,7.6-8,10.2-12.9c2.5-4.9,3.8-10.2,3.8-15.8c0-2.5-0.3-4.9-0.9-7.2c-0.6-2.3-1.7-4.3-3.4-6.1
				c-1.7-1.8-3.9-3.2-6.8-4.3c-2.9-1.1-6.5-1.6-10.9-1.6c-6.8,0-12.9,1.2-18.2,3.6c-5.3,2.4-10,5.6-14,9.6s-7.4,8.5-10.2,13.5
				c-2.8,5-5,10.1-6.7,15.3c-1.7,5.2-2.9,10.3-3.7,15.2c-0.8,4.9-1.2,9.3-1.2,13.2c0,11.3,2.9,19.5,8.6,24.4
				c5.7,4.9,13.3,7.4,22.8,7.4c6.7,0,12.7-1.1,18.2-3.2c5.5-2.1,10.5-4.9,15-8.4c4.3-3.3,8.2-7.1,11.7-11.2
				c1.2,6.8,3.8,11.9,7.8,15.4c5.7,4.9,13.2,7.4,22.5,7.4c4,0,7.9-0.5,11.6-1.4c3.7-0.9,7.1-2.5,10.2-4.8c3.1-2.3,5.7-5.3,7.9-9.1
				s3.8-8.6,4.9-14.3c-3.2,2.8-6.9,5.3-11.2,7.4c-4.3,2.1-8.4,3.2-12.2,3.2c-2.5,0-4.6-0.5-6.2-1.4c-1.6-0.9-2.9-2.2-3.8-3.8
				c-0.9-1.6-1.6-3.4-1.9-5.3c-0.3-1.9-0.5-3.9-0.5-5.9c0-1.1,0-2.1,0.1-3.1C468,318.7,468.1,317.7,468.2,316.6z M473.6,292.9
				c1.7-4.8,3.7-9.1,5.8-12.9c2.1-3.8,4.4-7,6.8-9.5c2.4-2.5,4.9-3.7,7.4-3.7c1.9,0,3.2,0.7,3.9,2.2c0.7,1.5,1.1,3.4,1.1,6
				c0,4.1-0.8,8.1-2.4,11.8c-1.6,3.8-3.7,7.1-6.4,10.1c-2.7,2.9-5.8,5.3-9.3,7.2c-3.5,1.9-7.2,2.9-11.1,3
				C470.5,302.4,471.9,297.6,473.6,292.9z M398.1,292.5c1.7-4.8,3.6-9.1,5.7-12.8c2.1-3.8,4.4-6.9,6.8-9.3c2.4-2.4,4.9-3.6,7.4-3.6
				c1.9,0,3.2,0.7,3.9,2.2c0.7,1.5,1.1,3.4,1.1,6c0,4-0.8,7.9-2.3,11.6c-1.5,3.8-3.6,7.1-6.3,10.1c-2.7,2.9-5.8,5.3-9.3,7.2
				c-3.5,1.9-7.2,2.9-11.1,3.2C395.1,302.1,396.4,297.2,398.1,292.5z"/>
		</g>
		<g>
			<g>
				<path class="st6" d="M375,252.5h-20l3.6-17.6c0.8-3.3,1.7-6.7,2.8-8.7c1.1-2.1,2.2-4,3.5-5.1c1.3-1.1,2.5-2.1,3.8-2.5
					c1.3-0.4,2.4-0.7,3.5-0.7c2,0,3.8,0.5,5.3,1.7c1.5,1.1,2.3,2.8,2.3,5.1c0,0.9,0,3-0.1,3.8c-0.1,0.8-0.2,2-0.3,4h9.4
					c0.4-3,0.6-6.4,0.6-9.4c0-3.2-0.7-6.8-2-9.4c-1.3-2.7-3.1-5.3-5.3-7.2c-2.2-1.9-4.7-3.6-7.5-4.6c-2.8-1-5.7-1.6-8.8-1.6
					c-4.4,0-9.1,0.8-14,2.5c-4.9,1.7-9.4,5-13.4,10.1c-1.9-3.9-4.8-6.9-8.7-9.2c-3.9-2.3-8.2-3.4-12.7-3.4c-3.3,0-6.8,0.4-10.4,1.3
					c-3.6,0.9-7.1,2.5-10.5,5c-3.4,2.5-6.5,5.9-9.2,10.3c-2.7,4.4-4.8,10.2-6.3,17.4l-9,43c-2.5,1-5,1.8-7.5,2.4
					c-2.7,0.7-5.2,1-7.5,1c-0.9,0-1.7-0.1-2.2-0.2c-0.3-20.9-8.8-31.4-25.6-31.4c-6.9,0-13.1,1.2-18.4,3.6c-5.3,2.4-10,5.6-14.1,9.6
					c-4.1,4-7.5,8.5-10.3,13.5c-2.8,5-5.1,10.1-6.9,15.4c-1.8,5.3-3.1,10.4-3.9,15.3c-0.8,4.9-1.2,9.3-1.2,13.2c0,2.9,0.2,5.6,0.6,8
					c-0.9,0.6-1.9,1.1-2.8,1.7c-6.9,3.8-14.2,5.7-21.8,5.7c-4.8,0-8.8-0.8-11.9-2.4c-3.1-1.6-5.6-3.9-7.3-6.8
					c-1.7-2.9-2.9-6.4-3.6-10.4c-0.7-4-1-8.4-1-13.2c0-6.7,0.5-13.6,1.5-20.8c1-7.2,2.4-14.2,4.3-21.1c1.9-6.9,4.1-13.4,6.7-19.6
					c2.6-6.2,5.5-11.6,8.6-16.2c3.1-4.6,6.5-8.3,10.1-11c3.6-2.7,7.3-4.1,11.2-4.1c3.9,0,6.7,1.2,8.6,3.7c1.9,2.5,2.8,5.4,2.8,8.7
					c0,3.6-0.9,7.2-2.8,10.9c-1.9,3.7-4,6.1-6.4,7.3c1.9,2.3,3.8,3.7,5.9,4.3c2.1,0.6,3.9,0.9,5.5,0.9c5.1,0,8.7-1.7,10.8-5.2
					c2.1-3.5,3.2-7.7,3.2-12.8c0-4.9-0.9-9.1-2.6-12.6c-1.7-3.5-4.1-6.3-7-8.4c-2.9-2.1-6.4-3.7-10.4-4.7s-8.2-1.5-12.6-1.5
					c-8.9,0-16.9,1.7-23.9,5.2c-7,3.5-13.1,8.1-18.3,13.8c-5.2,5.7-9.6,12.3-13.2,19.6c-3.6,7.3-6.5,14.8-8.8,22.5
					c-2.3,7.7-3.9,15.3-4.9,22.8c-1,7.5-1.5,14.3-1.5,20.3c0,17.1,3.6,29.5,10.8,37.3c7.2,7.8,17.3,11.7,30.4,11.7
					c6.1,0,12.2-0.8,18.2-2.4c6-1.6,11.6-4,16.8-7.2c3-1.9,5.9-4,8.6-6.3c1.4,2.6,3.1,4.9,5.2,6.7c2.8,2.5,6.2,4.4,10.1,5.5
					c3.9,1.1,8.2,1.7,12.9,1.7c6.1,0,11.9-1.4,17.4-4.2c5.5-2.8,10.3-6.8,14.6-12.1c4.3-5.3,7.8-11.6,10.6-19.1
					c2.8-7.5,4.6-15.9,5.4-25.2c5.5-0.9,10.7-2.3,15.6-4.2l-13,62c-4.8,1.5-9.3,3-13.5,4.6c-4.2,1.6-7.9,3.5-11,5.7
					c-3.1,2.2-5.6,4.9-7.4,8.1c-1.8,3.2-2.7,7.1-2.7,11.6c0,3.2,0.7,6.1,2,8.8c1.3,2.7,3.1,5,5.3,6.9c2.2,1.9,4.7,3.4,7.5,4.4
					c2.8,1,5.7,1.5,8.8,1.5c4.4,0,9.1-0.8,14-2.5c4.9-1.7,9.3-5,13.2-10.1c1.6,3.9,4.2,6.9,7.7,9.2c3.5,2.3,8.2,3.4,13.9,3.4
					c3.3,0,6.8-0.4,10.4-1.3c3.6-0.9,7.1-2.5,10.5-5c3.4-2.5,6.5-5.9,9.2-10.3c2.7-4.4,4.8-9,6.3-16.2l22.6-106.8h19.8L375,252.5z
					 M233.5,275.9c-1.1,1.8-1.7,4.1-1.7,6.9c0,2,0.4,3.8,1.1,5.3c0.7,1.5,2.2,2.6,4.3,3.1c-0.8,5.9-2,11.3-3.6,16.4
					c-1.6,5.1-3.4,9.4-5.5,13.1c-2.1,3.7-4.3,6.5-6.8,8.6c-2.5,2.1-4.9,3.1-7.3,3.1c-1.9,0-3.5-0.2-4.8-0.7
					c-1.3-0.5-2.4-1.3-3.2-2.5c-0.8-1.2-1.4-2.8-1.7-4.9c-0.3-2.1-0.5-4.8-0.5-8.1c0-4.9,0.7-10.6,2.2-16.9c1.5-6.3,3.4-12.3,5.8-18
					c2.4-5.7,5.2-10.5,8.4-14.4c3.2-3.9,6.6-5.9,10.2-5.9c2.5,0,4.4,0.8,5.5,2.5c1.1,1.7,1.8,4.6,2.1,8.7
					C236.1,272.9,234.6,274.1,233.5,275.9z M254,366.6c-1.3,6-3.1,10.1-5.3,12.3s-4.4,3.3-6.5,3.3c-2.3,0-4.2-0.7-5.7-2.2
					c-1.5-1.5-2.3-2.9-2.3-4.4c0-2.7,0.6-5.1,1.7-7.2c1.1-2.1,2.7-4,4.7-5.6c2-1.6,4.3-3,7-4.3c2.7-1.3,5.6-2.4,8.8-3.5L254,366.6z
					 M301.6,366.6c-1.3,6-3.1,10.1-5.3,12.3c-2.2,2.2-4.4,3.3-6.5,3.3c-2.7,0-5-0.3-7.1-0.8c-2.1-0.5-3.6-1.6-4.5-3.2
					c0.7-1.7,1.3-3.6,2-5.7c0.7-2.1,1.3-4.2,1.8-6.5l3.8-18.4l20.6-3.8L301.6,366.6z M307.4,340.2l-20.6,4.2l17.8-84h19.8
					L307.4,340.2z M329.1,226.8c0,0.7,0.8,2.6,0.6,3.4l-3.6,22.2h-19.8l3.6-17.6c0.8-3.3,1.7-6.7,2.8-8.7c1.1-2.1,2.2-4,3.5-5.1
					c1.3-1.1,2.5-2.1,3.8-2.5c1.3-0.4,2.4-0.7,3.5-0.7c2,0,2.8,0.5,4.3,1.7c1.5,1.1,1.3,2.8,1.3,5.1
					C329.1,225.4,329.1,226.1,329.1,226.8z"/>
				<path class="st6" d="M461.2,309.6c6-0.4,11.7-1.7,17.2-3.9c5.5-2.2,10.4-5.1,14.6-8.8c4.2-3.7,7.6-7.9,10.2-12.8
					c2.5-4.9,3.8-10.2,3.8-15.9c0-2.5-0.3-4.9-0.9-7.2c-0.6-2.3-1.7-4.3-3.4-6.1c-1.7-1.8-3.9-3.2-6.8-4.3
					c-2.9-1.1-6.5-1.6-10.9-1.6c-6.8,0-12.9,1.2-18.2,3.6c-5.3,2.4-10,5.6-14,9.6s-7.4,8.5-10.2,13.5s-5,10.1-6.7,15.3
					c-1.7,5.2-2.9,10.3-3.7,15.2c-0.7,4.5-1.1,8.6-1.2,12.3c-1.2,1.3-2.4,2.5-3.6,3.6c-2.5,2.5-5.2,4.6-8,6.4s-5.8,3.2-9,4.3
					c-3.2,1.1-6.8,1.6-10.8,1.6c-4.8,0-8.4-1.1-10.8-3.3c-2.4-2.2-3.6-6.7-3.6-13.5c0-1.2,0-2.5,0.1-3.8c0.1-1.3,0.2-2.7,0.3-4.2
					c6-0.4,11.7-1.7,17.2-3.9c5.5-2.2,10.4-5.1,14.6-8.8c4.2-3.7,7.6-8,10.2-12.9c2.5-4.9,3.8-10.2,3.8-15.8c0-2.5-0.3-4.9-0.9-7.2
					c-0.6-2.3-1.7-4.3-3.4-6.1c-1.7-1.8-3.9-3.2-6.8-4.3c-2.9-1.1-6.5-1.6-10.9-1.6c-6.8,0-12.9,1.2-18.2,3.6
					c-5.3,2.4-10,5.6-14,9.6s-7.4,8.5-10.2,13.5c-2.8,5-5,10.1-6.7,15.3c-1.7,5.2-2.9,10.3-3.7,15.2c-0.8,4.9-1.2,9.3-1.2,13.2
					c0,11.3,2.9,19.5,8.6,24.4c5.7,4.9,13.3,7.4,22.8,7.4c6.7,0,12.7-1.1,18.2-3.2c5.5-2.1,10.5-4.9,15-8.4
					c4.3-3.3,8.2-7.1,11.7-11.2c1.2,6.8,3.8,11.9,7.8,15.4c5.7,4.9,13.2,7.4,22.5,7.4c4,0,7.9-0.5,11.6-1.4
					c3.7-0.9,7.1-2.5,10.2-4.8c3.1-2.3,5.7-5.3,7.9-9.1s3.8-8.6,4.9-14.3c-3.2,2.8-6.9,5.3-11.2,7.4c-4.3,2.1-8.4,3.2-12.2,3.2
					c-2.5,0-4.6-0.5-6.2-1.4c-1.6-0.9-2.9-2.2-3.8-3.8c-0.9-1.6-1.6-3.4-1.9-5.3c-0.3-1.9-0.5-3.9-0.5-5.9c0-1.1,0-2.1,0.1-3.1
					C461,311.7,461.1,310.7,461.2,309.6z M466.6,285.9c1.7-4.8,3.7-9.1,5.8-12.9c2.1-3.8,4.4-7,6.8-9.5c2.4-2.5,4.9-3.7,7.4-3.7
					c1.9,0,3.2,0.7,3.9,2.2c0.7,1.5,1.1,3.4,1.1,6c0,4.1-0.8,8.1-2.4,11.8c-1.6,3.8-3.7,7.1-6.4,10.1c-2.7,2.9-5.8,5.3-9.3,7.2
					c-3.5,1.9-7.2,2.9-11.1,3C463.5,295.4,464.9,290.6,466.6,285.9z M391.1,285.5c1.7-4.8,3.6-9.1,5.7-12.8c2.1-3.8,4.4-6.9,6.8-9.3
					c2.4-2.4,4.9-3.6,7.4-3.6c1.9,0,3.2,0.7,3.9,2.2c0.7,1.5,1.1,3.4,1.1,6c0,4-0.8,7.9-2.3,11.6c-1.5,3.8-3.6,7.1-6.3,10.1
					c-2.7,2.9-5.8,5.3-9.3,7.2c-3.5,1.9-7.2,2.9-11.1,3.2C388.1,295.1,389.4,290.2,391.1,285.5z"/>
			</g>
		</g>
	</g>
</g>
</svg>
