<?xml version="1.0" encoding="utf-8"?>
<!-- Generator: Adobe Illustrator 17.0.0, SVG Export Plug-In . SVG Version: 6.00 Build 0)  -->
<!DOCTYPE svg PUBLIC "-//W3C//DTD SVG 1.1//EN" "http://www.w3.org/Graphics/SVG/1.1/DTD/svg11.dtd">
<svg version="1.1" xmlns="http://www.w3.org/2000/svg" xmlns:xlink="http://www.w3.org/1999/xlink" x="0px" y="0px"
	 width="438.992px" height="211px" viewBox="0 0 438.992 211" enable-background="new 0 0 438.992 211" xml:space="preserve">
<g id="Layer_1_copy" display="none">
	<g display="inline">
		<g>
			<path fill="#005057" stroke="#005057" stroke-width="3" stroke-miterlimit="10" d="M109.3,125c-2.668,6-6.134,11.3-10.4,15.9
				c-4.269,4.6-9,8.5-14.2,11.7c-5.2,3.199-10.8,5.6-16.8,7.199c-6,1.601-12.069,2.4-18.2,2.4c-13.069,0-23.2-3.9-30.4-11.7
				c-7.2-7.8-10.8-20.231-10.8-37.3c0-6,0.5-12.766,1.5-20.3c1-7.531,2.631-15.131,4.9-22.8c2.266-7.666,5.2-15.166,8.8-22.5
				c3.6-7.332,8-13.866,13.2-19.6c5.2-5.731,11.3-10.331,18.3-13.8c7-3.466,14.965-5.2,23.9-5.2c4.4,0,8.6,0.5,12.6,1.5
				s7.465,2.569,10.4,4.7c2.931,2.134,5.266,4.934,7,8.4c1.731,3.469,2.6,7.668,2.6,12.6c0,5.068-1.069,9.334-3.2,12.8
				c-2.134,3.469-5.734,5.2-10.8,5.2c-1.6,0-3.435-0.3-5.5-0.9c-2.069-0.6-4.035-2.031-5.9-4.3c2.4-1.2,4.531-3.631,6.4-7.3
				c1.865-3.666,2.8-7.3,2.8-10.9c0-3.331-0.935-6.231-2.8-8.7c-1.869-2.466-4.734-3.7-8.6-3.7c-3.869,0-7.6,1.369-11.2,4.1
				c-3.6,2.734-6.969,6.4-10.1,11c-3.134,4.6-6,10-8.6,16.2c-2.6,6.2-4.834,12.734-6.7,19.6c-1.869,6.869-3.3,13.9-4.3,21.1
				c-1,7.2-1.5,14.134-1.5,20.8c0,4.8,0.331,9.2,1,13.2c0.666,4,1.865,7.469,3.6,10.399c1.731,2.935,4.166,5.2,7.3,6.801
				c3.131,1.6,7.1,2.399,11.9,2.399c7.6,0,14.866-1.899,21.8-5.7c6.932-3.8,12.731-8.899,17.4-15.3L109.3,125z"/>
			<path fill="#005057" stroke="#005057" stroke-width="3" stroke-miterlimit="10" d="M156.297,58c16.8,0,25.332,10.469,25.6,31.4
				c0.531,0.134,1.266,0.2,2.2,0.2c2.266,0,4.766-0.332,7.5-1c2.731-0.666,5.465-1.566,8.2-2.7c2.731-1.131,5.4-2.431,8-3.9
				c2.6-1.466,4.966-2.931,7.1-4.4l1.8,5.4c-3.869,4.134-8.9,7.634-15.1,10.5c-6.2,2.869-12.9,4.9-20.1,6.1
				c-0.8,9.334-2.6,17.734-5.4,25.2c-2.8,7.469-6.334,13.835-10.6,19.101c-4.269,5.269-9.134,9.3-14.6,12.1
				c-5.469,2.8-11.269,4.2-17.4,4.2c-4.669,0-8.969-0.568-12.9-1.7c-3.935-1.131-7.3-2.966-10.1-5.5c-2.8-2.531-5-5.8-6.6-9.8
				s-2.4-8.865-2.4-14.6c0-3.866,0.4-8.266,1.2-13.201c0.8-4.931,2.1-10.031,3.9-15.3c1.8-5.266,4.1-10.4,6.9-15.4
				c2.8-5,6.231-9.5,10.3-13.5c4.066-4,8.766-7.2,14.1-9.6C143.229,59.2,149.363,58,156.297,58z M141.498,141.4
				c2.4,0,4.831-1.031,7.3-3.101c2.466-2.065,4.731-4.931,6.8-8.6c2.065-3.666,3.9-8.031,5.5-13.1c1.6-5.066,2.8-10.531,3.6-16.4
				c-2.134-0.531-3.568-1.566-4.3-3.1c-0.734-1.531-1.1-3.3-1.1-5.3c0-2.8,0.566-5.1,1.7-6.9c1.131-1.8,2.631-3.031,4.5-3.7
				c-0.269-4.131-0.969-7.031-2.1-8.7c-1.134-1.666-2.969-2.5-5.5-2.5c-3.6,0-7,1.969-10.2,5.9c-3.2,3.935-6,8.734-8.4,14.4
				c-2.4,5.669-4.334,11.669-5.8,18c-1.469,6.334-2.2,11.969-2.2,16.9c0,3.334,0.166,6.034,0.5,8.1c0.332,2.069,0.9,3.7,1.7,4.9
				c0.8,1.2,1.866,2.034,3.2,2.5C138.029,141.169,139.629,141.4,141.498,141.4z"/>
			<path fill="#005057" stroke="#005057" stroke-width="3" stroke-miterlimit="10" d="M174.097,209c-3.065,0-6-0.5-8.8-1.5
				c-2.8-1-5.3-2.469-7.5-4.399c-2.2-1.935-3.966-4.234-5.3-6.9c-1.331-2.669-2-5.6-2-8.8c0-4.534,0.9-8.4,2.7-11.601
				c1.8-3.199,4.269-5.899,7.4-8.1c3.134-2.2,6.8-4.1,11-5.7c4.2-1.6,8.7-3.131,13.5-4.6l24-114.2c1.466-7.2,3.566-13,6.3-17.4
				c2.731-4.4,5.8-7.831,9.2-10.3c3.399-2.466,6.899-4.131,10.5-5c3.6-0.866,7.065-1.3,10.399-1.3c4.531,0,8.766,1.134,12.701,3.4
				c3.932,2.269,6.83,5.334,8.699,9.2c4-5.065,8.467-8.431,13.4-10.1c4.932-1.666,9.6-2.5,14-2.5c3.066,0,6,0.5,8.801,1.5
				c2.799,1,5.299,2.469,7.5,4.4c2.199,1.934,3.965,4.234,5.299,6.9c1.332,2.669,2,5.6,2,8.8c0,3.069-0.199,5.8-0.6,8.2h-9.4
				c0.131-1.065,0.232-2,0.301-2.8c0.064-0.8,0.1-1.666,0.1-2.6c0-2.266-0.77-3.966-2.301-5.1c-1.533-1.131-3.299-1.7-5.299-1.7
				c-1.068,0-2.234,0.2-3.5,0.6c-1.27,0.4-2.535,1.169-3.801,2.3c-1.268,1.134-2.434,2.734-3.5,4.8c-1.068,2.069-2,4.769-2.799,8.1
				L283.496,59h20l-1.799,8h-19.801l-22.6,108c-1.469,7.2-3.568,13-6.301,17.4c-2.734,4.399-5.8,7.831-9.199,10.3
				c-3.4,2.466-6.9,4.131-10.5,5c-3.601,0.865-7.069,1.3-10.4,1.3c-5.734,0-10.369-1.134-13.9-3.399c-3.534-2.27-6.1-5.335-7.7-9.2
				c-3.869,5.065-8.269,8.431-13.2,10.1C183.166,208.166,178.497,209,174.097,209z M162.697,184.601c0,1.465,0.769,2.931,2.3,4.399
				c1.535,1.466,3.435,2.2,5.7,2.2c2.134,0,4.3-1.1,6.5-3.3s3.969-6.3,5.3-12.3l2.4-11.601c-3.2,1.065-6.131,2.231-8.8,3.5
				c-2.666,1.266-5,2.7-7,4.3c-2,1.601-3.565,3.466-4.7,5.601C163.266,179.531,162.697,181.932,162.697,184.601z M206.697,187.2
				c0.931,1.6,2.431,2.666,4.5,3.2c2.065,0.531,4.431,0.8,7.1,0.8c2.131,0,4.3-1.1,6.5-3.3c2.199-2.2,3.965-6.3,5.3-12.3l4.8-22.801
				l-20.6,3.801l-3.8,18.399c-0.534,2.266-1.134,4.432-1.8,6.5C208.028,183.565,207.362,185.466,206.697,187.2z M215.297,151.601
				l20.6-3.601l17-81h-19.8L215.297,151.601z M259.496,33.6c0-2.266-0.768-3.966-2.299-5.1c-1.535-1.131-3.301-1.7-5.301-1.7
				c-1.068,0-2.234,0.2-3.5,0.6c-1.269,0.4-2.534,1.169-3.8,2.3c-1.269,1.134-2.435,2.734-3.5,4.8c-1.069,2.069-2,4.769-2.8,8.1
				L234.696,59h19.8l4.602-21c0.266-0.8,0.398-1.531,0.398-2.2C259.496,35.134,259.496,34.4,259.496,33.6z"/>
			<path fill="#005057" stroke="#005057" stroke-width="3" stroke-miterlimit="10" d="M321.695,126.601c0,6.8,1.2,11.3,3.601,13.5
				c2.399,2.199,6,3.3,10.8,3.3c4,0,7.6-0.531,10.8-1.601c3.2-1.065,6.2-2.5,9-4.3s5.466-3.931,8-6.399
				c2.531-2.466,5.065-5.101,7.601-7.9h6.8c-2.8,4.669-6,9.2-9.601,13.6c-3.6,4.4-7.668,8.335-12.199,11.801
				c-4.535,3.469-9.535,6.269-15,8.399c-5.469,2.132-11.535,3.2-18.2,3.2c-9.525,0-17.138-2.466-22.844-7.4
				c-5.706-4.931-8.557-13.065-8.557-24.399c0-3.866,0.4-8.266,1.2-13.2c0.8-4.932,2.031-10,3.7-15.2c1.665-5.2,3.899-10.3,6.7-15.3
				c2.8-5,6.199-9.5,10.199-13.5s8.666-7.2,14-9.6c5.332-2.4,11.4-3.6,18.2-3.6c4.4,0,8.031,0.534,10.9,1.6
				c2.865,1.069,5.131,2.5,6.8,4.3c1.666,1.8,2.8,3.834,3.4,6.1c0.6,2.269,0.899,4.669,0.899,7.2c0,5.6-1.263,10.869-3.784,15.8
				c-2.525,4.935-5.909,9.234-10.156,12.9c-4.25,3.669-9.128,6.6-14.638,8.8c-5.509,2.2-11.25,3.5-17.225,3.9
				c-0.132,1.469-0.231,2.868-0.297,4.199C321.727,124.135,321.695,125.4,321.695,126.601z M352.496,76.959
				c0-2.519-0.369-4.509-1.101-5.969c-0.734-1.459-2.034-2.191-3.899-2.191c-2.535,0-5,1.197-7.4,3.584
				c-2.4,2.388-4.669,5.472-6.8,9.253c-2.135,3.781-4.034,8.062-5.7,12.837c-1.669,4.775-3.034,9.619-4.1,14.525
				c3.865-0.263,7.565-1.325,11.1-3.181c3.531-1.856,6.631-4.247,9.3-7.166c2.666-2.919,4.766-6.269,6.3-10.05
				C351.727,84.822,352.496,80.94,352.496,76.959z"/>
			<path fill="#005057" stroke="#005057" stroke-width="3" stroke-miterlimit="10" d="M398.689,118.601
				c-0.131,1.068-0.231,2.1-0.297,3.1c-0.068,1-0.1,2.034-0.1,3.1c0,2,0.165,3.969,0.496,5.9c0.332,1.935,0.96,3.7,1.888,5.3
				c0.929,1.601,2.188,2.869,3.781,3.8c1.591,0.935,3.647,1.4,6.166,1.4c3.844,0,7.922-1.065,12.231-3.2
				c4.309-2.131,8.056-4.6,11.237-7.399c-1.069,5.734-2.7,10.5-4.9,14.3s-4.834,6.834-7.899,9.1c-3.069,2.269-6.469,3.869-10.2,4.8
				c-3.734,0.932-7.601,1.4-11.601,1.4c-9.334,0-16.834-2.466-22.5-7.4c-5.668-4.931-8.5-13.065-8.5-24.399
				c0-3.866,0.4-8.266,1.2-13.2c0.8-4.932,2.031-10,3.7-15.2c1.666-5.2,3.9-10.3,6.7-15.3s6.2-9.5,10.2-13.5s8.665-7.2,14-9.6
				c5.331-2.4,11.399-3.6,18.199-3.6c4.4,0,8.031,0.534,10.9,1.6c2.865,1.069,5.131,2.5,6.8,4.3c1.666,1.8,2.8,3.834,3.4,6.1
				c0.6,2.269,0.899,4.669,0.899,7.2c0,5.734-1.262,11.034-3.784,15.9c-2.524,4.869-5.909,9.134-10.156,12.8
				c-4.25,3.669-9.128,6.6-14.638,8.8C410.405,116.9,404.664,118.2,398.689,118.601z M429.093,76.959
				c0-2.519-0.369-4.509-1.101-5.969c-0.734-1.459-2.034-2.191-3.899-2.191c-2.534,0-5,1.229-7.4,3.682
				c-2.399,2.456-4.669,5.606-6.8,9.453c-2.135,3.85-4.068,8.162-5.8,12.938c-1.734,4.775-3.135,9.484-4.2,14.128
				c3.865-0.131,7.565-1.128,11.1-2.984c3.531-1.856,6.632-4.247,9.301-7.166c2.665-2.919,4.8-6.269,6.399-10.05
				C428.293,85.019,429.093,81.072,429.093,76.959z"/>
		</g>
		<g>
			<g>
				<path fill="#FF9064" stroke="#D9D9B4" stroke-width="3" stroke-miterlimit="10" d="M102.3,118c-2.668,6-6.134,11.3-10.4,15.9
					c-4.269,4.6-9,8.5-14.2,11.7c-5.2,3.199-10.8,5.6-16.8,7.199c-6,1.601-12.069,2.4-18.2,2.4c-13.069,0-23.2-3.9-30.4-11.7
					c-7.2-7.8-10.8-20.231-10.8-37.3c0-6,0.5-12.766,1.5-20.3c1-7.531,2.631-15.131,4.9-22.8c2.266-7.666,5.2-15.166,8.8-22.5
					c3.6-7.332,8-13.866,13.2-19.6c5.2-5.731,11.3-10.331,18.3-13.8C55.2,3.734,63.166,2,72.1,2c4.4,0,8.6,0.5,12.6,1.5
					s7.465,2.569,10.4,4.7c2.931,2.134,5.266,4.934,7,8.4c1.731,3.469,2.6,7.668,2.6,12.6c0,5.068-1.069,9.334-3.2,12.8
					c-2.134,3.469-5.734,5.2-10.8,5.2c-1.6,0-3.435-0.3-5.5-0.9c-2.069-0.6-4.035-2.031-5.9-4.3c2.4-1.2,4.531-3.631,6.4-7.3
					c1.865-3.666,2.8-7.3,2.8-10.9c0-3.331-0.935-6.231-2.8-8.7c-1.869-2.466-4.734-3.7-8.6-3.7c-3.869,0-7.6,1.369-11.2,4.1
					c-3.6,2.734-6.969,6.4-10.1,11c-3.134,4.6-6,10-8.6,16.2c-2.6,6.2-4.834,12.734-6.7,19.6c-1.869,6.869-3.3,13.9-4.3,21.1
					c-1,7.2-1.5,14.134-1.5,20.8c0,4.8,0.331,9.2,1,13.2c0.666,4,1.865,7.469,3.6,10.399c1.731,2.935,4.166,5.2,7.3,6.801
					c3.131,1.6,7.1,2.399,11.9,2.399c7.6,0,14.866-1.899,21.8-5.7c6.932-3.8,12.731-8.899,17.4-15.3L102.3,118z"/>
				<path fill="#FF9064" stroke="#D9D9B4" stroke-width="3" stroke-miterlimit="10" d="M149.297,51c16.8,0,25.332,10.469,25.6,31.4
					c0.531,0.134,1.266,0.2,2.2,0.2c2.266,0,4.766-0.332,7.5-1c2.731-0.666,5.465-1.566,8.2-2.7c2.731-1.131,5.4-2.431,8-3.9
					c2.6-1.466,4.966-2.931,7.1-4.4l1.8,5.4c-3.869,4.134-8.9,7.634-15.1,10.5c-6.2,2.869-12.9,4.9-20.1,6.1
					c-0.8,9.334-2.6,17.734-5.4,25.2c-2.8,7.469-6.334,13.835-10.6,19.101c-4.269,5.269-9.134,9.3-14.6,12.1
					c-5.469,2.8-11.269,4.2-17.4,4.2c-4.669,0-8.969-0.568-12.9-1.7c-3.935-1.131-7.3-2.966-10.1-5.5c-2.8-2.531-5-5.8-6.6-9.8
					s-2.4-8.865-2.4-14.6c0-3.866,0.4-8.266,1.2-13.201c0.8-4.931,2.1-10.031,3.9-15.3c1.8-5.266,4.1-10.4,6.9-15.4
					c2.8-5,6.231-9.5,10.3-13.5c4.066-4,8.766-7.2,14.1-9.6C136.229,52.2,142.363,51,149.297,51z M134.498,134.4
					c2.4,0,4.831-1.031,7.3-3.101c2.466-2.065,4.731-4.931,6.8-8.6c2.065-3.666,3.9-8.031,5.5-13.1c1.6-5.066,2.8-10.531,3.6-16.4
					c-2.134-0.531-3.568-1.566-4.3-3.1c-0.734-1.531-1.1-3.3-1.1-5.3c0-2.8,0.566-5.1,1.7-6.9c1.131-1.8,2.631-3.031,4.5-3.7
					c-0.269-4.131-0.969-7.031-2.1-8.7c-1.134-1.666-2.969-2.5-5.5-2.5c-3.6,0-7,1.969-10.2,5.9c-3.2,3.935-6,8.734-8.4,14.4
					c-2.4,5.669-4.334,11.669-5.8,18c-1.469,6.334-2.2,11.969-2.2,16.9c0,3.334,0.166,6.034,0.5,8.1c0.332,2.069,0.9,3.7,1.7,4.9
					c0.8,1.2,1.866,2.034,3.2,2.5C131.029,134.169,132.629,134.4,134.498,134.4z"/>
				<path fill="#FF9064" stroke="#D9D9B4" stroke-width="3" stroke-miterlimit="10" d="M167.097,202c-3.065,0-6-0.5-8.8-1.5
					c-2.8-1-5.3-2.469-7.5-4.399c-2.2-1.935-3.966-4.234-5.3-6.9c-1.331-2.669-2-5.6-2-8.8c0-4.534,0.9-8.4,2.7-11.601
					c1.8-3.199,4.269-5.899,7.4-8.1c3.134-2.2,6.8-4.1,11-5.7c4.2-1.6,8.7-3.131,13.5-4.6l24-114.2c1.466-7.2,3.566-13,6.3-17.4
					c2.731-4.4,5.8-7.831,9.2-10.3c3.399-2.466,6.899-4.131,10.5-5c3.6-0.866,7.065-1.3,10.399-1.3c4.531,0,8.766,1.134,12.701,3.4
					c3.932,2.269,6.83,5.334,8.699,9.2c4-5.065,8.467-8.431,13.4-10.1c4.932-1.666,9.6-2.5,14-2.5c3.066,0,6,0.5,8.801,1.5
					c2.799,1,5.299,2.469,7.5,4.4c2.199,1.934,3.965,4.234,5.299,6.9c1.332,2.669,2,5.6,2,8.8c0,3.069-0.199,5.8-0.6,8.2h-9.4
					c0.131-1.065,0.232-2,0.301-2.8c0.064-0.8,0.1-1.666,0.1-2.6c0-2.266-0.77-3.966-2.301-5.1c-1.533-1.131-3.299-1.7-5.299-1.7
					c-1.068,0-2.234,0.2-3.5,0.6c-1.27,0.4-2.535,1.169-3.801,2.3c-1.268,1.134-2.434,2.734-3.5,4.8c-1.068,2.069-2,4.769-2.799,8.1
					L276.496,52h20l-1.799,8h-19.801l-22.6,108c-1.469,7.2-3.568,13-6.301,17.4c-2.734,4.399-5.8,7.831-9.199,10.3
					c-3.4,2.466-6.9,4.131-10.5,5c-3.601,0.865-7.069,1.3-10.4,1.3c-5.734,0-10.369-1.134-13.9-3.399c-3.534-2.27-6.1-5.335-7.7-9.2
					c-3.869,5.065-8.269,8.431-13.2,10.1C176.166,201.166,171.497,202,167.097,202z M155.697,177.601c0,1.465,0.769,2.931,2.3,4.399
					c1.535,1.466,3.435,2.2,5.7,2.2c2.134,0,4.3-1.1,6.5-3.3s3.969-6.3,5.3-12.3l2.4-11.601c-3.2,1.065-6.131,2.231-8.8,3.5
					c-2.666,1.266-5,2.7-7,4.3c-2,1.601-3.565,3.466-4.7,5.601C156.266,172.531,155.697,174.932,155.697,177.601z M199.697,180.2
					c0.931,1.6,2.431,2.666,4.5,3.2c2.065,0.531,4.431,0.8,7.1,0.8c2.131,0,4.3-1.1,6.5-3.3c2.199-2.2,3.965-6.3,5.3-12.3
					l4.8-22.801l-20.6,3.801l-3.8,18.399c-0.534,2.266-1.134,4.432-1.8,6.5C201.028,176.565,200.362,178.466,199.697,180.2z
					 M208.297,144.601l20.6-3.601l17-81h-19.8L208.297,144.601z M252.496,26.6c0-2.266-0.768-3.966-2.299-5.1
					c-1.535-1.131-3.301-1.7-5.301-1.7c-1.068,0-2.234,0.2-3.5,0.6c-1.269,0.4-2.534,1.169-3.8,2.3
					c-1.269,1.134-2.435,2.734-3.5,4.8c-1.069,2.069-2,4.769-2.8,8.1L227.696,52h19.8l4.602-21c0.266-0.8,0.398-1.531,0.398-2.2
					C252.496,28.134,252.496,27.4,252.496,26.6z"/>
				<path fill="#FF9064" stroke="#D9D9B4" stroke-width="3" stroke-miterlimit="10" d="M314.695,119.601c0,6.8,1.2,11.3,3.601,13.5
					c2.399,2.199,6,3.3,10.8,3.3c4,0,7.6-0.531,10.8-1.601c3.2-1.065,6.2-2.5,9-4.3s5.466-3.931,8-6.399
					c2.531-2.466,5.065-5.101,7.601-7.9h6.8c-2.8,4.669-6,9.2-9.601,13.6c-3.6,4.4-7.668,8.335-12.199,11.801
					c-4.535,3.469-9.535,6.269-15,8.399c-5.469,2.132-11.535,3.2-18.2,3.2c-9.525,0-17.138-2.466-22.844-7.4
					c-5.706-4.931-8.557-13.065-8.557-24.399c0-3.866,0.4-8.266,1.2-13.2c0.8-4.932,2.031-10,3.7-15.2
					c1.665-5.2,3.899-10.3,6.7-15.3c2.8-5,6.199-9.5,10.199-13.5s8.666-7.2,14-9.6c5.332-2.4,11.4-3.6,18.2-3.6
					c4.4,0,8.031,0.534,10.9,1.6c2.865,1.069,5.131,2.5,6.8,4.3c1.666,1.8,2.8,3.834,3.4,6.1c0.6,2.269,0.899,4.669,0.899,7.2
					c0,5.6-1.263,10.869-3.784,15.8c-2.525,4.935-5.909,9.234-10.156,12.9c-4.25,3.669-9.128,6.6-14.638,8.8
					c-5.509,2.2-11.25,3.5-17.225,3.9c-0.132,1.469-0.231,2.868-0.297,4.199C314.727,117.135,314.695,118.4,314.695,119.601z
					 M345.496,69.959c0-2.519-0.369-4.509-1.101-5.969c-0.734-1.459-2.034-2.191-3.899-2.191c-2.535,0-5,1.197-7.4,3.584
					c-2.4,2.388-4.669,5.472-6.8,9.253c-2.135,3.781-4.034,8.062-5.7,12.837c-1.669,4.775-3.034,9.619-4.1,14.525
					c3.865-0.263,7.565-1.325,11.1-3.181c3.531-1.856,6.631-4.247,9.3-7.166c2.666-2.919,4.766-6.269,6.3-10.05
					C344.727,77.822,345.496,73.94,345.496,69.959z"/>
				<path fill="#FF9064" stroke="#D9D9B4" stroke-width="3" stroke-miterlimit="10" d="M391.689,111.601
					c-0.131,1.068-0.231,2.1-0.297,3.1c-0.068,1-0.1,2.034-0.1,3.1c0,2,0.165,3.969,0.496,5.9c0.332,1.935,0.96,3.7,1.888,5.3
					c0.929,1.601,2.188,2.869,3.781,3.8c1.591,0.935,3.647,1.4,6.166,1.4c3.844,0,7.922-1.065,12.231-3.2
					c4.309-2.131,8.056-4.6,11.237-7.399c-1.069,5.734-2.7,10.5-4.9,14.3s-4.834,6.834-7.899,9.1c-3.069,2.269-6.469,3.869-10.2,4.8
					c-3.734,0.932-7.601,1.4-11.601,1.4c-9.334,0-16.834-2.466-22.5-7.4c-5.668-4.931-8.5-13.065-8.5-24.399
					c0-3.866,0.4-8.266,1.2-13.2c0.8-4.932,2.031-10,3.7-15.2c1.666-5.2,3.9-10.3,6.7-15.3s6.2-9.5,10.2-13.5s8.665-7.2,14-9.6
					c5.331-2.4,11.399-3.6,18.199-3.6c4.4,0,8.031,0.534,10.9,1.6c2.865,1.069,5.131,2.5,6.8,4.3c1.666,1.8,2.8,3.834,3.4,6.1
					c0.6,2.269,0.899,4.669,0.899,7.2c0,5.734-1.262,11.034-3.784,15.9c-2.524,4.869-5.909,9.134-10.156,12.8
					c-4.25,3.669-9.128,6.6-14.638,8.8C403.405,109.9,397.664,111.2,391.689,111.601z M422.093,69.959
					c0-2.519-0.369-4.509-1.101-5.969c-0.734-1.459-2.034-2.191-3.899-2.191c-2.534,0-5,1.229-7.4,3.682
					c-2.399,2.456-4.669,5.606-6.8,9.453c-2.135,3.85-4.068,8.162-5.8,12.938c-1.734,4.775-3.135,9.484-4.2,14.128
					c3.865-0.131,7.565-1.128,11.1-2.984c3.531-1.856,6.632-4.247,9.301-7.166c2.665-2.919,4.8-6.269,6.399-10.05
					C421.293,78.019,422.093,74.072,422.093,69.959z"/>
			</g>
		</g>
	</g>
</g>
<g id="Layer_1">
	<g>
		<g>
			<path fill="#005057" stroke="#005057" stroke-width="4" stroke-miterlimit="10" d="M303.496,61.496h-20l3.602-17.648
				c0.799-3.332,1.73-6.655,2.799-8.724c1.066-2.065,2.232-3.978,3.5-5.112c1.266-1.131,2.531-2.056,3.801-2.456
				c1.266-0.4,2.432-0.678,3.5-0.678c2,0,3.766,0.53,5.299,1.661c1.531,1.134,2.301,2.815,2.301,5.081
				c0,0.934-0.035,3.038-0.1,3.838c-0.068,0.8-0.17,2.038-0.301,4.038h9.4c0.4-3,0.6-6.379,0.6-9.448c0-3.2-0.668-6.755-2-9.424
				c-1.334-2.666-3.1-5.278-5.299-7.212c-2.201-1.931-4.701-3.556-7.5-4.556c-2.801-1-5.734-1.578-8.801-1.578
				c-4.4,0-9.068,0.795-14,2.461c-4.934,1.668-9.4,5.015-13.4,10.08c-1.869-3.865-4.768-6.941-8.699-9.209
				c-3.936-2.266-8.17-3.405-12.701-3.405c-3.334,0-6.8,0.432-10.399,1.297c-3.601,0.869-7.101,2.533-10.5,4.999
				c-3.4,2.469-6.469,5.899-9.2,10.299c-2.734,4.4-4.834,10.2-6.3,17.4l-9.034,42.989c-2.489,0.994-4.978,1.805-7.465,2.411
				c-2.734,0.668-5.234,1-7.5,1c-0.935,0-1.669-0.066-2.2-0.2c-0.269-20.931-8.8-31.4-25.6-31.4c-6.934,0-13.069,1.2-18.4,3.6
				c-5.334,2.4-10.034,5.6-14.1,9.6c-4.069,4-7.5,8.5-10.3,13.5c-2.8,5-5.1,10.134-6.9,15.4c-1.8,5.269-3.1,10.369-3.9,15.3
				c-0.8,4.935-1.2,9.334-1.2,13.201c0,2.902,0.207,5.58,0.616,8.037c-0.918,0.577-1.853,1.135-2.814,1.662
				c-6.934,3.801-14.2,5.7-21.8,5.7c-4.8,0-8.769-0.8-11.9-2.399c-3.134-1.601-5.569-3.866-7.3-6.801
				c-1.734-2.931-2.934-6.399-3.6-10.399c-0.669-4-1-8.4-1-13.2c0-6.666,0.5-13.6,1.5-20.8c1-7.2,2.431-14.231,4.3-21.1
				c1.866-6.865,4.1-13.4,6.7-19.6c2.6-6.2,5.465-11.6,8.6-16.2c3.131-4.6,6.5-8.266,10.1-11c3.6-2.731,7.332-4.1,11.2-4.1
				c3.866,0,6.731,1.234,8.6,3.7c1.865,2.469,2.8,5.369,2.8,8.7c0,3.6-0.935,7.234-2.8,10.9c-1.869,3.668-4,6.1-6.4,7.3
				c1.866,2.269,3.832,3.7,5.9,4.3c2.065,0.6,3.9,0.9,5.5,0.9c5.065,0,8.666-1.731,10.8-5.2c2.131-3.466,3.2-7.731,3.2-12.8
				c0-4.932-0.869-9.131-2.6-12.6c-1.734-3.466-4.069-6.266-7-8.4c-2.935-2.131-6.4-3.7-10.4-4.7S96.5,9,92.1,9
				c-8.935,0-16.9,1.734-23.9,5.2c-7,3.469-13.1,8.068-18.3,13.8c-5.2,5.734-9.6,12.269-13.2,19.6c-3.6,7.334-6.535,14.834-8.8,22.5
				C25.631,77.769,24,85.369,23,92.9c-1,7.535-1.5,14.3-1.5,20.3c0,17.068,3.6,29.5,10.8,37.3c7.2,7.8,17.332,11.7,30.4,11.7
				c6.131,0,12.2-0.8,18.2-2.4c6-1.6,11.6-4,16.8-7.199c3.036-1.869,5.908-3.983,8.626-6.329c1.405,2.633,3.126,4.88,5.171,6.729
				c2.8,2.534,6.166,4.369,10.1,5.5c3.931,1.132,8.231,1.7,12.9,1.7c6.131,0,11.931-1.4,17.4-4.2c5.466-2.8,10.331-6.831,14.6-12.1
				c4.266-5.266,7.8-11.632,10.6-19.101c2.8-7.465,4.6-15.865,5.4-25.2c5.503-0.917,10.713-2.324,15.632-4.216L185.097,157.4
				c-4.8,1.469-9.3,3-13.5,4.6c-4.2,1.601-7.866,3.5-11,5.7c-3.131,2.2-5.6,4.9-7.4,8.1c-1.8,3.2-2.7,7.066-2.7,11.601
				c0,3.2,0.669,6.131,2,8.8c1.334,2.666,3.1,4.966,5.3,6.9c2.2,1.931,4.7,3.399,7.5,4.399c2.8,1,5.734,1.5,8.8,1.5
				c4.4,0,9.069-0.834,14-2.5c4.931-1.669,9.332-5.034,13.2-10.1c1.6,3.865,4.166,6.931,7.7,9.2c3.531,2.266,8.166,3.399,13.9,3.399
				c3.331,0,6.8-0.435,10.4-1.3c3.6-0.869,7.1-2.534,10.5-5c3.399-2.469,6.465-5.9,9.199-10.3c2.732-4.4,4.832-8.952,6.301-16.152
				l22.6-106.752h19.801L303.496,61.496z M161.998,84.9c-1.134,1.8-1.7,4.1-1.7,6.9c0,2,0.366,3.769,1.1,5.3
				c0.731,1.534,2.166,2.569,4.3,3.1c-0.8,5.869-2,11.334-3.6,16.4c-1.6,5.069-3.435,9.434-5.5,13.1
				c-2.069,3.669-4.334,6.534-6.8,8.6c-2.469,2.069-4.9,3.101-7.3,3.101c-1.869,0-3.469-0.231-4.8-0.7c-1.334-0.466-2.4-1.3-3.2-2.5
				c-0.8-1.2-1.369-2.831-1.7-4.9c-0.334-2.065-0.5-4.766-0.5-8.1c0-4.932,0.731-10.566,2.2-16.9c1.465-6.331,3.4-12.331,5.8-18
				c2.4-5.666,5.2-10.465,8.4-14.4c3.2-3.931,6.6-5.9,10.2-5.9c2.531,0,4.366,0.834,5.5,2.5c1.131,1.669,1.831,4.569,2.1,8.7
				C164.629,81.869,163.129,83.1,161.998,84.9z M182.497,175.601c-1.331,6-3.1,10.1-5.3,12.3s-4.366,3.3-6.5,3.3
				c-2.266,0-4.166-0.734-5.7-2.2c-1.531-1.469-2.3-2.935-2.3-4.399c0-2.669,0.569-5.069,1.7-7.2c1.134-2.135,2.7-4,4.7-5.601
				c2-1.6,4.334-3.034,7-4.3c2.669-1.269,5.6-2.435,8.8-3.5L182.497,175.601z M230.097,175.601c-1.335,6-3.101,10.1-5.3,12.3
				c-2.2,2.2-4.369,3.3-6.5,3.3c-2.669,0-5.035-0.269-7.1-0.8c-2.069-0.534-3.569-1.601-4.5-3.2c0.666-1.734,1.331-3.635,2-5.7
				c0.666-2.068,1.266-4.234,1.8-6.5l3.8-18.399l20.6-3.801L230.097,175.601z M235.896,149.248l-20.6,4.225l17.8-83.977h19.8
				L235.896,149.248z M257.591,35.8c0,0.669,0.82,2.648,0.554,3.448l-3.649,22.248h-19.8l3.601-17.648
				c0.8-3.332,1.73-6.655,2.8-8.724c1.065-2.065,2.231-3.978,3.5-5.112c1.266-1.131,2.531-2.056,3.8-2.456
				c1.266-0.4,2.432-0.678,3.5-0.678c2,0,2.813,0.53,4.348,1.661c1.531,1.134,1.346,2.795,1.346,5.061
				C257.591,34.4,257.591,35.134,257.591,35.8z"/>
			<path fill="#005057" stroke="#005057" stroke-width="4" stroke-miterlimit="10" d="M389.689,118.601
				c5.975-0.4,11.716-1.701,17.225-3.9c5.51-2.2,10.388-5.131,14.638-8.8c4.247-3.666,7.632-7.931,10.156-12.8
				c2.522-4.866,3.784-10.166,3.784-15.9c0-2.531-0.3-4.932-0.899-7.2c-0.601-2.266-1.734-4.3-3.4-6.1
				c-1.669-1.8-3.935-3.231-6.8-4.3c-2.869-1.066-6.5-1.6-10.9-1.6c-6.8,0-12.868,1.2-18.199,3.6c-5.335,2.4-10,5.6-14,9.6
				s-7.4,8.5-10.2,13.5s-5.034,10.1-6.7,15.3c-1.669,5.2-2.9,10.269-3.7,15.2c-0.737,4.547-1.119,8.618-1.177,12.258
				c-1.207,1.251-2.414,2.467-3.62,3.642c-2.534,2.469-5.2,4.6-8,6.399s-5.8,3.234-9,4.3c-3.2,1.069-6.8,1.601-10.8,1.601
				c-4.8,0-8.4-1.101-10.8-3.3c-2.4-2.2-3.601-6.7-3.601-13.5c0-1.2,0.031-2.466,0.101-3.801c0.065-1.331,0.165-2.73,0.297-4.199
				c5.975-0.4,11.716-1.701,17.225-3.9c5.51-2.2,10.388-5.131,14.638-8.8c4.247-3.666,7.631-7.965,10.156-12.9
				c2.521-4.931,3.784-10.2,3.784-15.8c0-2.531-0.3-4.932-0.899-7.2c-0.601-2.266-1.734-4.3-3.4-6.1c-1.669-1.8-3.935-3.231-6.8-4.3
				c-2.869-1.066-6.5-1.6-10.9-1.6c-6.8,0-12.868,1.2-18.2,3.6c-5.334,2.4-10,5.6-14,9.6s-7.399,8.5-10.199,13.5
				c-2.801,5-5.035,10.1-6.7,15.3c-1.669,5.2-2.9,10.269-3.7,15.2c-0.8,4.935-1.2,9.334-1.2,13.2
				c0,11.334,2.851,19.469,8.557,24.399c5.706,4.935,13.318,7.4,22.844,7.4c6.665,0,12.731-1.068,18.2-3.2
				c5.465-2.131,10.465-4.931,15-8.399c4.331-3.312,8.226-7.066,11.706-11.232c1.16,6.767,3.751,11.917,7.79,15.431
				c5.666,4.935,13.166,7.4,22.5,7.4c4,0,7.866-0.469,11.601-1.4c3.731-0.931,7.131-2.531,10.2-4.8c3.065-2.266,5.699-5.3,7.899-9.1
				s3.831-8.565,4.9-14.3c-3.182,2.8-6.929,5.269-11.237,7.399c-4.31,2.135-8.388,3.2-12.231,3.2c-2.519,0-4.575-0.466-6.166-1.4
				c-1.594-0.931-2.853-2.199-3.781-3.8c-0.928-1.6-1.556-3.365-1.888-5.3c-0.331-1.932-0.496-3.9-0.496-5.9
				c0-1.065,0.031-2.1,0.1-3.1C389.458,120.7,389.559,119.669,389.689,118.601z M395.093,94.872c1.731-4.775,3.665-9.088,5.8-12.938
				c2.131-3.847,4.4-6.997,6.8-9.453c2.4-2.453,4.866-3.682,7.4-3.682c1.865,0,3.165,0.731,3.899,2.191
				c0.731,1.459,1.101,3.45,1.101,5.969c0,4.112-0.8,8.059-2.4,11.84c-1.6,3.781-3.734,7.131-6.399,10.05
				c-2.669,2.918-5.77,5.309-9.301,7.166c-3.534,1.856-7.234,2.853-11.1,2.984C391.958,104.356,393.358,99.647,395.093,94.872z
				 M319.596,94.475c1.666-4.775,3.565-9.056,5.7-12.837c2.131-3.781,4.399-6.866,6.8-9.253c2.4-2.387,4.865-3.584,7.4-3.584
				c1.865,0,3.165,0.731,3.899,2.191c0.731,1.459,1.101,3.45,1.101,5.969c0,3.981-0.77,7.862-2.301,11.644
				c-1.534,3.781-3.634,7.131-6.3,10.05c-2.669,2.918-5.769,5.309-9.3,7.166c-3.534,1.856-7.234,2.918-11.1,3.181
				C316.562,104.094,317.927,99.25,319.596,94.475z"/>
		</g>
		<g>
			<path fill="#FF9064" stroke="#D9D9B4" stroke-width="4" stroke-miterlimit="10" d="M296.496,54.496h-20l3.602-17.648
				c0.799-3.332,1.73-6.655,2.799-8.724c1.066-2.065,2.232-3.978,3.5-5.112c1.266-1.131,2.531-2.056,3.801-2.456
				c1.266-0.4,2.432-0.678,3.5-0.678c2,0,3.766,0.53,5.299,1.661c1.531,1.134,2.301,2.815,2.301,5.081
				c0,0.934-0.035,3.038-0.1,3.838c-0.068,0.8-0.17,2.038-0.301,4.038h9.4c0.4-3,0.6-6.379,0.6-9.448c0-3.2-0.668-6.755-2-9.424
				c-1.334-2.666-3.1-5.278-5.299-7.212c-2.201-1.931-4.701-3.556-7.5-4.556c-2.801-1-5.734-1.578-8.801-1.578
				c-4.4,0-9.068,0.795-14,2.461c-4.934,1.668-9.4,5.015-13.4,10.08c-1.869-3.865-4.768-6.941-8.699-9.209
				c-3.936-2.266-8.17-3.405-12.701-3.405c-3.334,0-6.8,0.432-10.399,1.297c-3.601,0.869-7.101,2.533-10.5,4.999
				c-3.4,2.469-6.469,5.899-9.2,10.299c-2.734,4.4-4.834,10.2-6.3,17.4l-9.034,42.989c-2.489,0.994-4.978,1.805-7.465,2.411
				c-2.734,0.668-5.234,1-7.5,1c-0.935,0-1.669-0.066-2.2-0.2c-0.269-20.931-8.8-31.4-25.6-31.4c-6.934,0-13.069,1.2-18.4,3.6
				c-5.334,2.4-10.034,5.6-14.1,9.6c-4.069,4-7.5,8.5-10.3,13.5c-2.8,5-5.1,10.134-6.9,15.4c-1.8,5.269-3.1,10.369-3.9,15.3
				c-0.8,4.935-1.2,9.334-1.2,13.201c0,2.902,0.207,5.58,0.616,8.037c-0.918,0.577-1.853,1.135-2.814,1.662
				c-6.934,3.801-14.2,5.7-21.8,5.7c-4.8,0-8.769-0.8-11.9-2.399c-3.134-1.601-5.569-3.866-7.3-6.801
				c-1.734-2.931-2.934-6.399-3.6-10.399c-0.669-4-1-8.4-1-13.2c0-6.666,0.5-13.6,1.5-20.8c1-7.2,2.431-14.231,4.3-21.1
				c1.866-6.865,4.1-13.4,6.7-19.6c2.6-6.2,5.465-11.6,8.6-16.2c3.131-4.6,6.5-8.266,10.1-11c3.6-2.731,7.332-4.1,11.2-4.1
				c3.866,0,6.731,1.234,8.6,3.7c1.865,2.469,2.8,5.369,2.8,8.7c0,3.6-0.935,7.234-2.8,10.9c-1.869,3.668-4,6.1-6.4,7.3
				c1.866,2.269,3.832,3.7,5.9,4.3c2.065,0.6,3.9,0.9,5.5,0.9c5.065,0,8.666-1.731,10.8-5.2c2.131-3.466,3.2-7.731,3.2-12.8
				c0-4.932-0.869-9.131-2.6-12.6c-1.734-3.466-4.069-6.266-7-8.4c-2.935-2.131-6.4-3.7-10.4-4.7S89.5,2,85.1,2
				c-8.935,0-16.9,1.734-23.9,5.2c-7,3.469-13.1,8.068-18.3,13.8c-5.2,5.734-9.6,12.269-13.2,19.6c-3.6,7.334-6.535,14.834-8.8,22.5
				C18.631,70.769,17,78.369,16,85.9c-1,7.535-1.5,14.3-1.5,20.3c0,17.068,3.6,29.5,10.8,37.3c7.2,7.8,17.332,11.7,30.4,11.7
				c6.131,0,12.2-0.8,18.2-2.4c6-1.6,11.6-4,16.8-7.199c3.036-1.869,5.908-3.983,8.626-6.329c1.405,2.633,3.126,4.88,5.171,6.729
				c2.8,2.534,6.166,4.369,10.1,5.5c3.931,1.132,8.231,1.7,12.9,1.7c6.131,0,11.931-1.4,17.4-4.2c5.466-2.8,10.331-6.831,14.6-12.1
				c4.266-5.266,7.8-11.632,10.6-19.101c2.8-7.465,4.6-15.865,5.4-25.2c5.503-0.917,10.713-2.324,15.632-4.216L178.097,150.4
				c-4.8,1.469-9.3,3-13.5,4.6c-4.2,1.601-7.866,3.5-11,5.7c-3.131,2.2-5.6,4.9-7.4,8.1c-1.8,3.2-2.7,7.066-2.7,11.601
				c0,3.2,0.669,6.131,2,8.8c1.334,2.666,3.1,4.966,5.3,6.9c2.2,1.931,4.7,3.399,7.5,4.399c2.8,1,5.734,1.5,8.8,1.5
				c4.4,0,9.069-0.834,14-2.5c4.931-1.669,9.332-5.034,13.2-10.1c1.6,3.865,4.166,6.931,7.7,9.2c3.531,2.266,8.166,3.399,13.9,3.399
				c3.331,0,6.8-0.435,10.4-1.3c3.6-0.869,7.1-2.534,10.5-5c3.399-2.469,6.465-5.9,9.199-10.3c2.732-4.4,4.832-8.952,6.301-16.152
				l22.6-106.752h19.801L296.496,54.496z M154.998,77.9c-1.134,1.8-1.7,4.1-1.7,6.9c0,2,0.366,3.769,1.1,5.3
				c0.731,1.534,2.166,2.569,4.3,3.1c-0.8,5.869-2,11.334-3.6,16.4c-1.6,5.069-3.435,9.434-5.5,13.1
				c-2.069,3.669-4.334,6.534-6.8,8.6c-2.469,2.069-4.9,3.101-7.3,3.101c-1.869,0-3.469-0.231-4.8-0.7c-1.334-0.466-2.4-1.3-3.2-2.5
				c-0.8-1.2-1.369-2.831-1.7-4.9c-0.334-2.065-0.5-4.766-0.5-8.1c0-4.932,0.731-10.566,2.2-16.9c1.465-6.331,3.4-12.331,5.8-18
				c2.4-5.666,5.2-10.465,8.4-14.4c3.2-3.931,6.6-5.9,10.2-5.9c2.531,0,4.366,0.834,5.5,2.5c1.131,1.669,1.831,4.569,2.1,8.7
				C157.629,74.869,156.129,76.1,154.998,77.9z M175.497,168.601c-1.331,6-3.1,10.1-5.3,12.3s-4.366,3.3-6.5,3.3
				c-2.266,0-4.166-0.734-5.7-2.2c-1.531-1.469-2.3-2.935-2.3-4.399c0-2.669,0.569-5.069,1.7-7.2c1.134-2.135,2.7-4,4.7-5.601
				c2-1.6,4.334-3.034,7-4.3c2.669-1.269,5.6-2.435,8.8-3.5L175.497,168.601z M223.097,168.601c-1.335,6-3.101,10.1-5.3,12.3
				c-2.2,2.2-4.369,3.3-6.5,3.3c-2.669,0-5.035-0.269-7.1-0.8c-2.069-0.534-3.569-1.601-4.5-3.2c0.666-1.734,1.331-3.635,2-5.7
				c0.666-2.068,1.266-4.234,1.8-6.5l3.8-18.399l20.6-3.801L223.097,168.601z M228.896,142.248l-20.6,4.225l17.8-83.977h19.8
				L228.896,142.248z M250.591,28.8c0,0.669,0.82,2.648,0.554,3.448l-3.649,22.248h-19.8l3.601-17.648
				c0.8-3.332,1.73-6.655,2.8-8.724c1.065-2.065,2.231-3.978,3.5-5.112c1.266-1.131,2.531-2.056,3.8-2.456
				c1.266-0.4,2.432-0.678,3.5-0.678c2,0,2.813,0.53,4.348,1.661c1.531,1.134,1.346,2.795,1.346,5.061
				C250.591,27.4,250.591,28.134,250.591,28.8z"/>
			<path fill="#FF9064" stroke="#D9D9B4" stroke-width="4" stroke-miterlimit="10" d="M382.689,111.601
				c5.975-0.4,11.716-1.701,17.225-3.9c5.51-2.2,10.388-5.131,14.638-8.8c4.247-3.666,7.632-7.931,10.156-12.8
				c2.522-4.866,3.784-10.166,3.784-15.9c0-2.531-0.3-4.932-0.899-7.2c-0.601-2.266-1.734-4.3-3.4-6.1
				c-1.669-1.8-3.935-3.231-6.8-4.3c-2.869-1.066-6.5-1.6-10.9-1.6c-6.8,0-12.868,1.2-18.199,3.6c-5.335,2.4-10,5.6-14,9.6
				s-7.4,8.5-10.2,13.5s-5.034,10.1-6.7,15.3c-1.669,5.2-2.9,10.269-3.7,15.2c-0.737,4.547-1.119,8.618-1.177,12.258
				c-1.207,1.251-2.414,2.467-3.62,3.642c-2.534,2.469-5.2,4.6-8,6.399s-5.8,3.234-9,4.3c-3.2,1.069-6.8,1.601-10.8,1.601
				c-4.8,0-8.4-1.101-10.8-3.3c-2.4-2.2-3.601-6.7-3.601-13.5c0-1.2,0.031-2.466,0.101-3.801c0.065-1.331,0.165-2.73,0.297-4.199
				c5.975-0.4,11.716-1.701,17.225-3.9c5.51-2.2,10.388-5.131,14.638-8.8c4.247-3.666,7.631-7.965,10.156-12.9
				c2.521-4.931,3.784-10.2,3.784-15.8c0-2.531-0.3-4.932-0.899-7.2c-0.601-2.266-1.734-4.3-3.4-6.1c-1.669-1.8-3.935-3.231-6.8-4.3
				c-2.869-1.066-6.5-1.6-10.9-1.6c-6.8,0-12.868,1.2-18.2,3.6c-5.334,2.4-10,5.6-14,9.6s-7.399,8.5-10.199,13.5
				c-2.801,5-5.035,10.1-6.7,15.3c-1.669,5.2-2.9,10.269-3.7,15.2c-0.8,4.935-1.2,9.334-1.2,13.2
				c0,11.334,2.851,19.469,8.557,24.399c5.706,4.935,13.318,7.4,22.844,7.4c6.665,0,12.731-1.068,18.2-3.2
				c5.465-2.131,10.465-4.931,15-8.399c4.331-3.312,8.226-7.066,11.706-11.232c1.16,6.767,3.751,11.917,7.79,15.431
				c5.666,4.935,13.166,7.4,22.5,7.4c4,0,7.866-0.469,11.601-1.4c3.731-0.931,7.131-2.531,10.2-4.8c3.065-2.266,5.699-5.3,7.899-9.1
				s3.831-8.565,4.9-14.3c-3.182,2.8-6.929,5.269-11.237,7.399c-4.31,2.135-8.388,3.2-12.231,3.2c-2.519,0-4.575-0.466-6.166-1.4
				c-1.594-0.931-2.853-2.199-3.781-3.8c-0.928-1.6-1.556-3.365-1.888-5.3c-0.331-1.932-0.496-3.9-0.496-5.9
				c0-1.065,0.031-2.1,0.1-3.1C382.458,113.7,382.559,112.669,382.689,111.601z M388.093,87.872c1.731-4.775,3.665-9.088,5.8-12.938
				c2.131-3.847,4.4-6.997,6.8-9.453c2.4-2.453,4.866-3.682,7.4-3.682c1.865,0,3.165,0.731,3.899,2.191
				c0.731,1.459,1.101,3.45,1.101,5.969c0,4.112-0.8,8.059-2.4,11.84c-1.6,3.781-3.734,7.131-6.399,10.05
				c-2.669,2.918-5.77,5.309-9.301,7.166c-3.534,1.856-7.234,2.853-11.1,2.984C384.958,97.356,386.358,92.647,388.093,87.872z
				 M312.596,87.475c1.666-4.775,3.565-9.056,5.7-12.837c2.131-3.781,4.399-6.866,6.8-9.253c2.4-2.387,4.865-3.584,7.4-3.584
				c1.865,0,3.165,0.731,3.899,2.191c0.731,1.459,1.101,3.45,1.101,5.969c0,3.981-0.77,7.862-2.301,11.644
				c-1.534,3.781-3.634,7.131-6.3,10.05c-2.669,2.918-5.769,5.309-9.3,7.166c-3.534,1.856-7.234,2.918-11.1,3.181
				C309.562,97.094,310.927,92.25,312.596,87.475z"/>
		</g>
	</g>
</g>
</svg>
